<?xml version="1.0" encoding="UTF-8"?>
<svg id="Layer_1" data-name="Layer 1" xmlns="http://www.w3.org/2000/svg" viewBox="0 0 100.95 100.95">
  <defs>
    <style>
      .cls-1 {
        opacity: .6;
      }

      .cls-2 {
        fill: #000;
        stroke: #000;
        stroke-miterlimit: 10;
        stroke-width: 1.55px;
      }

      .cls-3 {
        fill: #f1f1f1;
        stroke-width: 0px;
      }
    </style>
  </defs>
  <circle class="cls-3" cx="50.47" cy="50.47" r="50.47"/>
  <g class="cls-1">
    <path class="cls-2" d="M69.1,48.35c-.05,2.45-.66,4.48-1.47,6.48-2.76,6.73-5.28,13.54-7,20.62-.19.78-.35,1.57-.44,2.37-.01.12-.04.24-.07.36-.14.48-.52.72-1,.65-.43-.07-.7-.4-.68-.88.03-.87.23-1.71.42-2.55,1.13-4.93,2.78-9.71,4.51-14.45.92-2.52,1.92-5.02,2.95-7.5.65-1.57,1.05-3.21,1.02-4.91-.06-3.05-1.27-5.55-3.67-7.49-4.59-3.72-9.56-6.86-14.66-9.82-3.47-2.01-7-3.9-10.59-5.67-.1-.05-.19-.09-.28-.15-.43-.27-.57-.73-.36-1.14.21-.42.66-.6,1.12-.41.45.19.88.41,1.31.63,4.79,2.44,9.5,5.02,14.06,7.85,3.9,2.42,7.71,4.95,11.18,7.97,1.96,1.7,3.04,3.9,3.47,6.43.11.63.14,1.26.17,1.63Z"/>
    <path class="cls-2" d="M48.12,49.31c-1.84,0-3.35-1.35-3.6-3.26-.12-.95-.61-1.62-1.42-2.09-4.57-2.65-9.13-5.3-13.7-7.95-.85-.5-.94-.95-.3-1.72.77-.92,1.55-1.83,2.34-2.73.41-.47.76-.52,1.38-.19,2.74,1.48,5.47,2.96,8.2,4.45,1.6.87,3.2,1.73,4.8,2.61.92.51,1.83.52,2.78.04,1.75-.89,3.87-.26,4.78,1.4.99,1.79.48,3.85-1.26,4.92-.3.19-.38.36-.36.72.11,2.31-1.74,3.84-3.64,3.82ZM48.15,47.55c1.33,0,2.18-1.26,1.73-2.55-.32-.92-.15-1.24.81-1.5,1.32-.35,1.85-1.82,1.07-2.93-.54-.78-1.56-.98-2.53-.49-1.33.67-2.67.68-3.98.02-1.14-.57-2.24-1.21-3.36-1.82-3.05-1.66-6.11-3.31-9.15-4.98-.27-.15-.43-.11-.61.12-.27.35-.57.67-.85,1.01-.36.43-.36.43.11.71,4.06,2.36,8.12,4.75,12.2,7.08,1.51.86,2.49,2.02,2.71,3.79.12.95.91,1.55,1.85,1.54Z"/>
    <path class="cls-2" d="M50.16,78.83c-.62,0-1.24,0-1.87,0-.8,0-1.16-.48-.94-1.25,1.37-4.83,2.72-9.67,4.11-14.49.35-1.2.2-2.19-.61-3.17-1.27-1.52-1.02-3.7.46-4.99,1.45-1.27,3.57-1.19,4.94.21.24.24.43.28.75.18,1.86-.58,3.77.37,4.48,2.2.67,1.75-.1,3.8-1.88,4.53-1.21.5-1.81,1.33-2.18,2.52-1.37,4.43-2.8,8.85-4.2,13.27-.29.91-.41.99-1.36.99-.56,0-1.12,0-1.68,0ZM50.51,77.08c.21,0,.43-.02.64,0,.36.05.5-.11.61-.43,1.39-4.4,2.79-8.79,4.18-13.18.44-1.39,1.33-2.36,2.69-2.88.79-.3,1.25-.87,1.31-1.7.05-.75-.28-1.36-.95-1.74-.72-.41-1.43-.31-2.1.15-.67.46-1.15.34-1.5-.39-.35-.73-.94-1.11-1.73-1.12-.78,0-1.37.39-1.69,1.1-.33.73-.21,1.42.31,2.04,1.13,1.32,1.39,2.8.91,4.46-1.21,4.17-2.38,8.34-3.56,12.52-.33,1.16-.32,1.16.88,1.16Z"/>
    <path class="cls-2" d="M23.43,41.31c.27.01.47.11.66.25,5.97,4.08,12.46,7.08,19.36,9.23,1.09.34,2.19.62,3.29.92.43.12.82.27.93.76.1.47-.21.74-.52,1.03-2.86,2.62-4.57,5.83-4.81,9.74-.22,3.55-.04,7.09.16,10.64.07,1.3.18,2.6.29,3.9.05.58-.28,1-.77,1.04-.54.04-.92-.31-.98-.9-.24-2.66-.39-5.32-.48-7.99-.06-1.81-.06-3.61-.05-5.41.01-4.18,1.38-7.85,4.15-10.98.4-.45.39-.45-.18-.61-7.33-2.1-14.21-5.2-20.58-9.38-.33-.22-.66-.44-.96-.69-.32-.26-.37-.62-.23-.99.13-.35.42-.5.75-.54Z"/>
    <path class="cls-2" d="M60.43,52.59c-1.87-.11-3.69-.73-5.31-1.87-.89-.63-1.24-1.75-.93-2.88.39-1.41.95-2.76,1.67-4.02.8-1.4,2.72-1.75,3.94-.69,2.01,1.74,3.16,3.98,3.55,6.58.23,1.54-1.15,2.91-2.92,2.88ZM60.43,50.82c.86.02,1.29-.42,1.15-1.14-.37-1.96-1.26-3.66-2.69-5.06-.57-.55-1.24-.46-1.62.23-.59,1.08-1.05,2.22-1.39,3.41-.15.51-.03.86.41,1.15,1.28.85,2.69,1.31,4.14,1.42Z"/>
    <path class="cls-2" d="M68.61,38.29c-.34-.04-.61-.19-.74-.51-.15-.37-.08-.73.22-1,.59-.54,1.2-1.07,1.8-1.6.71-.62,1.41-1.24,2.12-1.86.09-.08.18-.16.28-.23.43-.29.87-.24,1.19.13.3.34.29.84-.08,1.19-.61.57-1.24,1.12-1.86,1.67-.72.63-1.44,1.26-2.15,1.89-.22.2-.45.36-.77.33Z"/>
    <path class="cls-2" d="M77.49,54.9c0,.68-.68,1.08-1.34.75-.94-.48-1.87-1-2.8-1.5-.44-.24-.88-.47-1.31-.72-.5-.29-.66-.75-.44-1.18.24-.46.74-.61,1.25-.35,1.38.73,2.75,1.47,4.12,2.21.31.17.52.42.52.79Z"/>
    <path class="cls-2" d="M77.53,42.97c.46,0,.83.3.89.74.06.45-.18.85-.65.96-.74.17-1.48.29-2.23.43-.83.15-1.67.3-2.5.45-.52.09-.97-.2-1.07-.68-.1-.45.19-.92.69-1.02,1.57-.3,3.15-.58,4.73-.87.04,0,.09,0,.14-.01Z"/>
  </g>
</svg>