<?xml version="1.0" encoding="UTF-8"?>
<svg id="Layer_1" data-name="Layer 1" xmlns="http://www.w3.org/2000/svg" viewBox="0 0 100.95 100.95">
  <defs>
    <style>
      .cls-1 {
        fill: #000;
      }

      .cls-1, .cls-2 {
        stroke-width: 0px;
      }

      .cls-3 {
        opacity: .6;
      }

      .cls-2 {
        fill: #f9ebb2;
      }
    </style>
  </defs>
  <circle class="cls-2" cx="50.47" cy="50.47" r="50.47"/>
  <g class="cls-3">
    <path class="cls-1" d="M28.64,53.77c-.72-.17-1.35-.29-1.98-.47-4.38-1.24-7.43-5.22-7.15-9.34.31-4.51,3.92-8.23,8.57-8.81,2.13-.27,4.26-.08,6.39-.14.36-.01.75.12,1.15-.17-1.25-1.38-2.2-2.9-2.54-4.74-.82-4.51,1.84-8.82,6.36-10.41,2.11-.74,4.27-.61,6.43-.61,2.55,0,2.48.17,2.46-2.37,0-1.22.48-1.8,1.46-1.82,1.02-.02,1.52.6,1.54,1.86,0,.34,0,.69,0,1.03-.01,2.56-1.44,4.01-4.03,4.06-1.65.03-3.31-.04-4.95.05-2.92.17-5.49,2.26-6.22,4.95-1.07,3.99,2.07,8.01,6.51,8.14,3.95.12,7.91.03,11.87.05.38,0,.76,0,1.13.08.68.15,1.09.61,1.09,1.31,0,.71-.44,1.15-1.11,1.31-.36.08-.75.06-1.13.06-8.26,0-16.52,0-24.78,0-3.08,0-5.77,1.75-6.78,4.36-1.49,3.81,1.15,8.05,5.42,8.71.68.1,1.37.14,2.06.14,5.23.01,10.46.03,15.69-.01.89,0,1.29.2,1.15,1.13-.04.23-.03.49,0,.72.12.75-.22.92-.92.91-3.44-.03-6.88-.03-10.32,0-2.2.02-4.11.79-5.59,2.45-3.32,3.72-1.25,9.43,3.81,10.56.71.16,1.43.21,2.15.21,4.09,0,8.19.02,12.28-.02.85,0,1.26.24,1.56,1.05.64,1.74.7,1.72-1.21,1.72-.93,0-1.86,0-2.79,0-2.22,0-3.27,1.01-3.31,3.27-.04,2.48-.02,4.96,0,7.43,0,.87-.32,1.47-1.19,1.69-.85.21-1.79-.36-1.8-1.23-.03-2.92.01-5.85.04-8.77,0-.3.11-.61.19-.91.4-1.49.4-1.48-1.12-1.49-1.89-.02-3.79.13-5.65-.32-6.08-1.44-9.3-7.75-6.64-13,.48-.95,1.19-1.74,1.89-2.63Z"/>
    <path class="cls-1" d="M84.31,51.79c-.05,5.81-.9,11.66-3.61,17.11-2.74,5.53-7,9.36-12.9,11.32-.65.22-1.23.23-1.88.01-7.61-2.54-12.16-7.99-14.58-15.41-1.78-5.44-2.19-11.04-1.83-16.72.15-2.3,1.07-3.13,3.39-3.29,3.28-.22,6.5-.7,9.52-2.08,1.19-.54,2.31-1.22,3.27-2.13.7-.66,1.5-.74,2.22-.08,2.69,2.45,6.01,3.39,9.48,3.93,1.29.2,2.6.28,3.9.39,1.58.13,2.6,1.05,2.84,2.62.2,1.37.14,2.75.18,4.33ZM81.38,51.79c0-1-.03-2,0-2.99.03-.8-.24-1.11-1.11-1.16-3.8-.22-7.52-.89-10.95-2.65-.85-.44-1.65-1.36-2.48-1.36-.82,0-1.62.92-2.48,1.36-3.43,1.76-7.15,2.43-10.95,2.66-.78.05-1.07.27-1.11,1.05-.25,5.09.1,10.12,1.65,15,2,6.28,5.69,11.09,12.04,13.53.58.22,1.09.23,1.68,0,4.73-1.8,8.15-5.03,10.41-9.52,2.52-5,3.28-10.39,3.28-15.91Z"/>
    <path class="cls-1" d="M65.82,37.99c.92-5.18-3.3-8.26-7.27-8.2-3.71.05-7.43.01-11.14.01-.31,0-.62,0-.93-.02-.8-.07-1.31-.53-1.33-1.31-.01-.84.52-1.35,1.36-1.37,1.44-.04,2.89-.02,4.33-.02,2.83,0,4.07-1.22,4.11-4.07.03-2.13,0-4.26.01-6.39,0-1.13.5-1.7,1.46-1.72.96-.02,1.53.56,1.54,1.65.02,2.23.03,4.47,0,6.7-.01,1.04-.2,2.07-.67,3-.37.72-.14.88.57.84,2.47-.14,4.81.32,6.87,1.75,3.04,2.11,4.54,4.97,4.16,8.73-.07.65-.26.9-.94.57-.63-.31-1.35-.13-2.13-.14Z"/>
    <path class="cls-1" d="M50.4,43.05c-1.13.69-1.94,1.41-2.45,2.41-.18.35-.49.33-.8.33-6.15,0-12.3,0-18.46,0-1.08,0-1.73-.56-1.74-1.36-.01-.85.67-1.39,1.8-1.39,7.01,0,14.02,0,21.03,0,.12,0,.25.01.61.04Z"/>
    <path class="cls-1" d="M42.27,61.74c-1.68,0-3.37.01-5.05,0-1.12-.01-1.81-.59-1.78-1.43.03-.8.69-1.33,1.77-1.34,3.26-.01,6.53,0,9.79-.02.61,0,.83.2.92.79.33,2,.35,1.99-1.63,1.99-1.34,0-2.68,0-4.02,0Z"/>
    <path class="cls-1" d="M49,82.16c-.78-.1-1.37-.52-1.39-1.43-.04-1.72,0-3.44-.02-5.16,0-.52.25-.64.7-.63,1.64.04,3.23-.18,4.66-1.05.29-.18.47-.12.7.11,1.71,1.68,1.63,2.09-.63,2.96-.06.02-.14.03-.19.07-.68.43-1.83.03-2.16.88-.26.69-.06,1.56-.07,2.35,0,1.24-.54,1.9-1.6,1.87Z"/>
    <path class="cls-1" d="M66.45,68.44c-5.3-.02-9.49-4.24-9.48-9.54.01-5.28,4.25-9.49,9.54-9.49,5.27,0,9.51,4.28,9.49,9.55-.02,5.28-4.27,9.5-9.55,9.48ZM73.24,56.45c0-.57-.25-1.01-.77-1.23-.6-.25-1.14-.08-1.59.38-1.55,1.56-3.13,3.1-4.65,4.69-.5.53-.81.52-1.28-.01-.59-.67-1.25-1.27-1.9-1.89-.73-.7-1.53-.75-2.09-.17-.55.58-.51,1.3.19,2,1.09,1.1,2.19,2.19,3.31,3.26.8.76,1.48.78,2.25.02,2.01-1.98,4-3.98,6-5.97.3-.3.53-.63.54-1.08Z"/>
  </g>
</svg>