<?xml version="1.0" encoding="UTF-8"?>
<svg id="Layer_1" data-name="Layer 1" xmlns="http://www.w3.org/2000/svg" viewBox="0 0 100.95 100.95">
  <defs>
    <style>
      .cls-1 {
        fill: #000;
      }

      .cls-1, .cls-2 {
        stroke-width: 0px;
      }

      .cls-3 {
        opacity: .6;
      }

      .cls-2 {
        fill: #c5eabe;
      }
    </style>
  </defs>
  <circle class="cls-2" cx="50.47" cy="50.47" r="50.47"/>
  <g class="cls-3">
    <path class="cls-1" d="M47.11,84.28c-.44,0-.89-.07-1.33-.22-1.96-.65-3.28-2.61-3.28-4.87v-21.12c0-.67-.39-1.08-.6-1.08h-9.85c-1.7,0-3.2-.97-4.01-2.59-.93-1.85-.75-4.09.46-5.72l20.24-27.29c1.18-1.59,3.09-2.23,4.88-1.64,1.96.65,3.28,2.61,3.28,4.87v21.12c0,.67.39,1.08.6,1.08h9.85c1.7,0,3.2.97,4.01,2.59.93,1.85.75,4.09-.46,5.72l-20.24,27.28c-.89,1.2-2.2,1.86-3.55,1.86ZM52.29,23.53c-.07,0-.18.04-.33.25l-20.24,27.29h0c-.36.48-.3,1.13-.1,1.54.06.12.22.39.44.39h9.85c2.54,0,4.6,2.28,4.6,5.08v21.12c0,.62.28.99.54,1.07.06.02.19.06.41-.23l20.24-27.28c.36-.48.3-1.14.1-1.54-.06-.12-.22-.39-.44-.39h-9.85c-2.54,0-4.6-2.28-4.6-5.08v-21.12c0-.62-.28-.99-.54-1.07-.02,0-.04-.01-.08-.01ZM30.11,49.87h0,0Z"/>
  </g>
</svg>