<?xml version="1.0" encoding="UTF-8"?>
<svg id="Layer_1" data-name="Layer 1" xmlns="http://www.w3.org/2000/svg" viewBox="0 0 100.95 100.95">
  <defs>
    <style>
      .cls-1 {
        fill: #000;
      }

      .cls-1, .cls-2 {
        stroke-width: 0px;
      }

      .cls-3 {
        opacity: .6;
      }

      .cls-2 {
        fill: #f1f1f1;
      }
    </style>
  </defs>
  <circle class="cls-2" cx="50.47" cy="50.47" r="50.47"/>
  <g class="cls-3">
    <path class="cls-1" d="M77.71,43.12c-.45.94-1.26,1.57-1.95,2.3-1.16,1.23-2.33,2.45-3.52,3.65-.85.86-1.99.91-2.77.15-.78-.76-.74-1.88.11-2.77,1.51-1.58,3.03-3.15,4.55-4.72,1.38-1.44,2.61-1.28,3.58.45v.94Z"/>
    <path class="cls-1" d="M23.24,42.18c.94-1.74,2.19-1.89,3.59-.44,1.54,1.6,3.09,3.18,4.61,4.79.66.69.77,1.57.35,2.3-.39.68-1.18,1.02-2.01.89-.44-.07-.76-.32-1.06-.62-1.61-1.67-3.23-3.34-4.82-5.02-.26-.28-.44-.63-.65-.95,0-.31,0-.63,0-.94Z"/>
    <path class="cls-1" d="M50.5,69.99c-4.45-.03-8.57-1.27-12.42-3.44-3.95-2.23-7.32-5.15-10.12-8.72-.39-.49-.51-.9-.08-1.45,4.2-5.3,9.37-9.24,15.89-11.24,6-1.85,11.8-1.16,17.39,1.52,4.71,2.26,8.63,5.52,11.86,9.62.42.54.47.95.03,1.51-4.25,5.33-9.49,9.26-16.06,11.26-2.1.64-4.27.93-6.48.95ZM57.01,47.99c3.46,4.17,2.67,9.26-.23,12.23-2.94,3.01-7.81,3.47-11.33,1.07-3.08-2.11-4.51-6.25-3.48-9.2.13.09.25.19.38.27,1.07.7,2.17.73,3.23.06,1.04-.66,1.45-1.68,1.29-2.9-.2-1.55-1.12-2.13-2.58-1.66-5.18,1.67-9.39,4.77-13.01,8.75-.35.38-.22.59.06.9,2.44,2.72,5.23,5.02,8.44,6.76,4.46,2.42,9.19,3.54,14.24,2.58,6.35-1.21,11.38-4.69,15.66-9.4.29-.32.29-.53,0-.85-.8-.89-1.65-1.74-2.54-2.55-2.93-2.64-6.2-4.72-10.12-6.08Z"/>
    <path class="cls-1" d="M47.95,40.01c0,.97-.71,1.78-1.64,1.87-1.01.1-1.87-.49-2.06-1.5-.25-1.38-.44-2.77-.65-4.16-.15-1-.3-2-.45-3.01-.16-1.09.46-2,1.5-2.2,1.02-.2,2,.45,2.18,1.52.4,2.41.75,4.83,1.11,7.25.01.08,0,.16,0,.23Z"/>
    <path class="cls-1" d="M32.61,36.2c.02-1.02.53-1.67,1.39-1.9.82-.22,1.67.13,2.09.96.86,1.69,1.67,3.4,2.51,5.11.24.49.5.97.72,1.47.42.97.06,2.02-.83,2.47-.89.46-1.95.22-2.43-.71-1.17-2.26-2.26-4.57-3.36-6.86-.1-.2-.08-.45-.09-.54Z"/>
    <path class="cls-1" d="M68.34,36.28c-.02.09-.03.34-.13.54-1.08,2.25-2.16,4.5-3.28,6.73-.37.74-1.18,1.08-1.9.96-.76-.13-1.37-.71-1.55-1.47-.11-.45,0-.88.19-1.28,1.05-2.15,2.08-4.3,3.15-6.44.44-.88,1.29-1.25,2.14-1.02.88.25,1.39.92,1.38,1.98Z"/>
    <path class="cls-1" d="M54.89,41.88c-1.18.01-2.06-.96-1.88-2.16.34-2.37.7-4.73,1.08-7.09.19-1.14,1.12-1.81,2.18-1.64,1.04.17,1.69,1.15,1.51,2.27-.35,2.29-.7,4.57-1.05,6.86-.16,1.08-.87,1.75-1.85,1.76Z"/>
  </g>
</svg>