<?xml version="1.0" encoding="UTF-8"?>
<svg id="Layer_1" data-name="Layer 1" xmlns="http://www.w3.org/2000/svg" viewBox="0 0 100.95 100.95">
  <defs>
    <style>
      .cls-1 {
        fill: #000;
      }

      .cls-1, .cls-2 {
        stroke-width: 0px;
      }

      .cls-3 {
        opacity: .6;
      }

      .cls-2 {
        fill: #f9ebb2;
      }
    </style>
  </defs>
  <circle class="cls-2" cx="50.47" cy="50.47" r="50.47"/>
  <g class="cls-3">
    <path class="cls-1" d="M18.58,50.05c.17.03.36.03.62.03h16.75c2.72,0,5.42,0,8.14.01.75,0,1.38.27,1.75.76.38.49.48,1.16.3,1.9-.14.54-.29,1.07-.46,1.61-.26.83-.54,1.66-.82,2.49-.74,2.2-1.51,4.47-1.89,6.81-.45,2.77.53,5.5,2.63,7.29,1.38,1.17,3.04,1.78,4.8,1.78.84,0,1.7-.14,2.55-.42,3.79-1.26,5.9-5.34,4.91-9.51-.46-1.96-1.1-3.9-1.71-5.77-.42-1.29-.85-2.62-1.23-3.94-.27-.94-.2-1.7.18-2.21.39-.52,1.13-.79,2.14-.79h24.4c.22,0,.45,0,.68-.02.55-.05.9-.41.9-.97,0-.54-.33-.92-.88-.99-.2-.03-.41-.02-.62-.02h-.15s-19.35,0-19.35,0c-1.8,0-3.59,0-5.38,0-1.38.01-2.56.55-3.31,1.52-.75.96-.98,2.23-.66,3.57.22.92.51,1.81.73,2.49.18.56.37,1.12.56,1.69.7,2.09,1.42,4.25,1.84,6.44.42,2.22-.29,4.17-2.05,5.65-1.55,1.3-3.32,1.62-5.26.96-2.88-.98-4.39-4.03-3.6-7.25.45-1.84,1.05-3.68,1.63-5.46.44-1.35.9-2.75,1.29-4.15.42-1.51.24-2.9-.53-3.9-.76-1.01-2.05-1.56-3.63-1.57-2.71,0-5.41,0-8.11,0h-16.46s-.14,0-.14,0c-.18,0-.37,0-.56.03-.54.1-.87.49-.84,1.02.02.48.34.82.85.91Z"/>
    <path class="cls-1" d="M46.63,63.79c-.36,1.3-.12,2.65.67,3.7.75,1,1.9,1.58,3.15,1.59h.03c1.93,0,3.46-1.27,3.9-3.24.28-1.27-.07-2.43-.42-3.54l-.03-.1c-.99-3.21-2.16-7.46-2.44-11.87-.64-10.14,1.85-19.58,7.41-28.06l.12-.17c.21-.3.48-.67.39-1.09-.05-.25-.22-.47-.5-.64-.27-.17-.54-.22-.79-.16-.41.1-.64.5-.81.81-.04.07-.08.14-.12.2-7.92,12.4-9.82,25.82-5.65,39.88.41,1.39.69,2.46.91,3.47.11.52-.01,1.09-.34,1.59-.31.48-.77.8-1.25.9-1.11.21-2.09-.51-2.34-1.73-.08-.41-.04-.83.13-1.32.51-1.44,1.02-2.88,1.51-4.33.22-.63,0-1.16-.56-1.37-.34-.13-.6-.07-.76,0-.25.11-.44.35-.56.68-.16.45-.32.9-.49,1.34-.41,1.13-.84,2.29-1.17,3.47Z"/>
    <path class="cls-1" d="M81.87,76.63c-1.43.04-2.76.55-4.17,1.63-2.42,1.85-4.34,1.85-6.83,0-3.07-2.27-6.09-2.28-8.98,0-2.29,1.8-4.83,1.78-6.96-.04-1.54-1.32-3.42-1.83-5.61-1.51-1.42.2-2.53.93-3.52,1.68-2.18,1.66-4.23,1.67-6.45.03l-.22-.16c-.29-.22-.6-.45-.93-.65-1.99-1.19-4.15-1.33-6.4-.42-.26.1-.74.3-.91.72-.09.24-.08.51.06.8.4.85,1.16.53,1.61.34,1.76-.75,3.35-.59,4.86.47.18.13.36.26.54.4.36.27.73.54,1.12.78,1.06.63,2.2.95,3.36.95,1.55,0,3.13-.56,4.61-1.67,2.47-1.85,4.38-1.85,6.9.04.55.41,1.11.84,1.79,1.09,2.49.94,4.8.63,6.87-.9l.29-.22c.75-.56,1.45-1.09,2.35-1.27,1.64-.32,3.14.09,4.57,1.28,1.3,1.09,2.8,1.62,4.58,1.62,1.5.03,3.02-.54,4.36-1.63,1.14-.92,2.13-1.35,3.21-1.38.34-.01,1.25-.04,1.23-1.01-.02-1-.92-.98-1.34-.97Z"/>
    <path class="cls-1" d="M81.93,55.56c.33-.01.78-.03,1.05-.33.16-.18.24-.42.22-.72-.06-1.02-.98-.96-1.44-.94-1.43.08-2.74.6-4.01,1.6-.81.64-1.52,1.1-2.39,1.29-1.58.34-2.96-.06-4.64-1.33-2.86-2.16-5.89-2.14-8.77.02-1.02.77-2.27,1.53-3.9,1.43-.37-.03-.64.1-.77.22-.13.11-.28.32-.3.68-.04.57.3.98.89,1.07.17.03.34.03.52.03h.03c1.58,0,3.02-.5,4.29-1.49.71-.55,1.52-1.18,2.51-1.4,1.63-.36,3.14.06,4.63,1.29,1.28,1.06,2.74,1.59,4.34,1.59h.24c1.57,0,3.06-.57,4.43-1.69,1.05-.86,2.02-1.27,3.07-1.31Z"/>
    <path class="cls-1" d="M42.6,58.56h.09c.13,0,.34-.01.55-.07.53-.14.83-.57.75-1.1-.08-.54-.47-.85-.97-.82-1.73.19-3-.66-4.49-1.79-1.35-1.01-2.95-1.4-4.9-1.17-1.57.18-2.8.99-3.89,1.85-1.28,1-2.67,1.32-4.25.96-.89-.2-1.63-.74-2.31-1.28-1.31-1.04-2.71-1.56-4.27-1.59-.98-.04-1.13.62-1.16.9-.04.39.1.64.23.78.18.2.45.31.78.31.01,0,.02,0,.04,0,1.29,0,2.32.57,3.55,1.49,1.37,1.02,2.84,1.53,4.31,1.53s3-.53,4.41-1.57c.74-.55,1.51-1.12,2.47-1.33,1.64-.34,3.11.08,4.62,1.33,1.23,1.02,2.69,1.53,4.45,1.57Z"/>
    <path class="cls-1" d="M29.87,78.94c-.26-.09-.57-.06-.88.1-2.03,1.01-3.96.73-5.87-.87-1.21-1-2.62-1.52-4.2-1.55-.99.02-1.17.61-1.18.98,0,.37.13.59.26.71.19.19.47.29.81.29.01,0,.02,0,.03,0,1.12,0,2.15.43,3.33,1.38,1.35,1.09,2.84,1.64,4.43,1.64h.07c1.28-.03,2.34-.29,3.24-.81.58-.33.76-.84.51-1.38-.15-.32-.38-.45-.54-.51Z"/>
    <path class="cls-1" d="M55.5,40.98s-.04,0-.06,0c-.58.02-1.62,1.11-1.63,1.72-.01.59.36.97.98.99h.02c.41,0,.82-.36,1.03-.57.16-.16.67-.73.64-1.27v-.03c-.07-.52-.45-.85-.98-.85Z"/>
    <path class="cls-1" d="M58.83,37.71c-.61,0-1.71,1.01-1.74,1.61-.03.6.31,1.01.9,1.07.02,0,.04,0,.06,0,.38,0,.78-.3,1-.49.17-.15.74-.68.77-1.21v-.04s0-.04,0-.04c-.13-.77-.66-.9-.97-.91h-.01Z"/>
    <path class="cls-1" d="M58.11,40.98h-.02c-.58.02-.97.4-1,.97-.02.44.44.94.64,1.14.19.19.67.61,1.09.61.01,0,.03,0,.04,0,.55-.04.91-.4.96-.97v-.02s0-.02,0-.02c-.03-.54-1.11-1.71-1.71-1.71Z"/>
    <path class="cls-1" d="M45.57,29.04s.04,0,.06,0c.32,0,.66-.23.89-.43.35-.3.72-.77.74-1.19v-.03s0-.03,0-.03c-.06-.57-.41-.91-.96-.93h-.03c-.41,0-.86.37-1.03.54-.18.17-.6.61-.61,1.04-.01.59.35.98.94,1.03Z"/>
    <path class="cls-1" d="M43.33,29.04h.01c.55,0,.94-.33,1.02-.88v-.03c.02-.42-.37-.89-.53-1.07-.17-.19-.62-.62-1.05-.63h-.03c-.58,0-.96.35-1.01.93-.03.38.3.8.5,1.02.14.15.63.66,1.09.66Z"/>
    <path class="cls-1" d="M45.67,29.33h-.05c-.57,0-.95.35-.99.92-.03.37.27.76.46.97.29.33.74.69,1.14.71h.04c.57-.04.94-.39.99-.93.03-.34-.23-.71-.46-.96-.15-.16-.66-.7-1.12-.71Z"/>
    <path class="cls-1" d="M67.72,24.78h.02c.42,0,.86-.42,1.03-.6.17-.18.58-.66.57-1.1v-.05c-.09-.53-.48-.85-1.03-.85h0c-.47,0-.94.47-1.08.61-.16.17-.54.62-.51,1.04.03.58.42.93,1.01.93Z"/>
    <path class="cls-1" d="M68.33,21.89h.04c.55-.03.93-.38.97-.92v-.02s0-.02,0-.02c-.02-.44-.44-.89-.61-1.06-.18-.17-.62-.56-1.03-.56h-.03c-.6.03-.96.42-.95,1.01,0,.45.43.89.61,1.06.17.16.6.51,1.02.51Z"/>
    <path class="cls-1" d="M56.49,39.44c-.01-.44-.41-.93-.78-1.26-.27-.23-.69-.48-1.01-.46-.6.06-.93.46-.89,1.07.04.6,1.12,1.61,1.71,1.61h.01c.59-.02.96-.38.96-.95h0Z"/>
    <path class="cls-1" d="M43.37,29.32s-.04,0-.06,0c-.48.02-.98.53-1.12.69-.18.21-.49.61-.46.99.05.57.43.92,1,.92h.05c.44-.02.88-.44,1.05-.62.17-.18.56-.65.54-1.1v-.04c-.1-.52-.47-.83-1-.83Z"/>
    <path class="cls-1" d="M70.6,21.9h.02c.4-.01.88-.41,1.18-.74.21-.24.46-.59.43-.91-.05-.58-.44-.94-1.01-.94h-.01c-.45,0-.89.41-1.06.58-.17.17-.55.61-.54,1.05.01.58.39.94.99.96Z"/>
    <path class="cls-1" d="M70.64,22.19c-.63-.02-1.01.34-1.04.93-.02.42.33.87.49,1.03.13.14.59.61,1.07.64.02,0,.04,0,.06,0,.51,0,.87-.3,1.01-.83v-.06c.03-.39-.31-.82-.51-1.04-.18-.19-.64-.65-1.07-.66Z"/>
    <path class="cls-1" d="M74.31,66.27h.02c.54,0,.93-.37.95-.92.03-.58-.33-.98-.92-1.04h-.02s-.03,0-.03,0c-.62.03-.99.39-1,.98-.01.59.37.97,1,.99Z"/>
    <path class="cls-1" d="M83.22,69.88c-.04-.62-.44-.94-1.03-.97-.56.02-.94.39-.96.93,0,.29.08.54.25.72.17.18.43.28.73.29h.03c.56,0,.94-.35.97-.93v-.02s0-.02,0-.02Z"/>
    <path class="cls-1" d="M18.72,70.86h0c.58,0,.96-.35,1-.94v-.02s0-.02,0-.02c-.04-.62-.47-.97-1.04-.95-.3.02-.55.13-.72.32-.17.19-.24.44-.22.73.04.54.43.89.98.9Z"/>
    <path class="cls-1" d="M26.01,73.73c-.2.17-.31.41-.33.71-.04.59.32,1,.94,1.06h.03s.03,0,.03,0c.58-.03.94-.4.96-.98.01-.55-.33-.94-.88-1-.29-.02-.55.04-.75.21Z"/>
    <path class="cls-1" d="M42.47,75.5h.03s.03,0,.03,0c.61-.04.99-.42,1-.99,0-.29-.09-.54-.27-.72-.18-.18-.42-.27-.71-.27h0c-.6,0-.98.39-.99.98,0,.56.34.93.91,1Z"/>
    <path class="cls-1" d="M57.73,73.76c-.19.17-.29.42-.3.72-.02.6.35.98.97,1.03h.03s.03,0,.03,0c.59-.06.93-.44.92-1.02,0-.56-.37-.93-.92-.96-.39-.02-.61.12-.74.24Z"/>
    <path class="cls-1" d="M27.64,65.23c-.05-.58-.41-.92-.99-.92h-.04c-.55.02-.92.39-.93.95,0,.29.09.56.27.74.18.18.42.28.71.28h0c.59,0,.97-.39.98-1.01v-.03Z"/>
    <path class="cls-1" d="M82.17,61.66h.03s.03,0,.03,0c.59-.05.95-.39.98-.95.02-.35-.11-.58-.22-.71-.17-.19-.42-.3-.72-.32-.31-.01-.55.07-.74.24-.19.17-.29.42-.3.71-.01.57.35.97.94,1.02Z"/>
    <path class="cls-1" d="M67.33,60.65c-.01-.58-.39-.96-.96-.97-.52,0-.95.34-.99.89-.02.31.05.58.22.77.11.13.32.28.67.3.03,0,.05,0,.08,0,.54,0,.9-.35.97-.95v-.05Z"/>
    <path class="cls-1" d="M35.59,60.64v-.03c-.06-.56-.45-.93-1-.93h-.02c-.55,0-.93.39-.95.94-.02.62.35,1.01.95,1.03h.04c.57,0,.92-.35.97-.98v-.03Z"/>
    <path class="cls-1" d="M18.77,61.66h.06c.57-.09.9-.48.89-1.03-.01-.58-.4-.95-.99-.95h-.03c-.29,0-.54.11-.72.3-.17.19-.26.44-.24.73.03.58.43.94,1.03.95Z"/>
    <path class="cls-1" d="M74.25,75.5s.04,0,.05,0c.55,0,.94-.37.98-.95.01-.26-.05-.9-.97-1.05h-.07s-.07,0-.07,0c-.23.07-.86.24-.86.97,0,.6.36.99.94,1.01Z"/>
    <path class="cls-1" d="M34.62,68.91h-.03c-.63.05-.99.44-.97,1.04.03.56.39.91.95.92h.03c.59,0,.98-.37.99-.96.01-.56-.35-.94-.94-.99h-.03Z"/>
    <path class="cls-1" d="M66.32,68.91h-.03c-.6.08-.93.46-.9,1.04.02.56.37.9.94.91h.02c.36,0,.58-.14.71-.26.12-.12.27-.34.27-.71,0-.57-.36-.94-.98-.98h-.03Z"/>
  </g>
</svg>