<?xml version="1.0" encoding="UTF-8"?>
<svg id="Layer_1" data-name="Layer 1" xmlns="http://www.w3.org/2000/svg" viewBox="0 0 100.95 100.95">
  <defs>
    <style>
      .cls-1 {
        fill: #000;
        opacity: .6;
      }

      .cls-1, .cls-2 {
        stroke-width: 0px;
      }

      .cls-2 {
        fill: #f3d2d2;
      }
    </style>
  </defs>
  <circle class="cls-2" cx="50.47" cy="50.47" r="50.47"/>
  <path class="cls-1" d="M79.67,31.59c-1.1-3.85-4.65-5.04-7.6-4.86h-.06c-2.79.29-6.68,1.61-10.58,3.4-2.77-2.56-5.85-3.87-9.19-3.87-.58,0-1.15.02-1.72.06v-8.29c0-.84-.68-1.52-1.52-1.52s-1.52.68-1.52,1.52v8.55s0,.07.01.11c-.79.15-1.56.33-2.29.56-1.5-1.85-2.92-3.46-4.26-4.8l1.4-5.74c.2-.82-.3-1.64-1.12-1.84-.81-.2-1.64.3-1.84,1.12l-1,4.11c-1.94-1.6-3.69-2.57-5.27-2.95-.81-.2-1.64.31-1.83,1.13-.19.82.31,1.64,1.13,1.83,1.16.28,2.96,1.21,5.61,3.74.1.14.23.26.37.36,1.12,1.1,2.4,2.49,3.83,4.21-2.12,1.06-3.88,2.48-5.2,4.23-2.6-3.25-4.75-5.79-6.41-7.58-2.07-2.23-5.27-1.73-7.36-.07-2.36,1.87-2.98,4.7-1.52,6.88,1.86,2.77,3.71,5.56,5.53,8.33-.25.16-.48.32-.69.48-4.26,3.41-5.29,14.15-2.24,23.47,4.78,14.59,11.98,21.98,21.4,21.98s13.66-7.85,17.11-14.77c.98-1.96,1.9-3.82,2.92-5.42,4.32-6.82,7.62-14.47,2.9-24.17,1.32-.56,2.77-1,4.37-1.23,3.49-.5,5.18-2.08,5.98-3.32,1.01-1.56,1.24-3.56.65-5.62ZM68.02,34.46c.39,1.18,1.06,2.38,2,3.62-3.85,1.08-6.84,3.1-9.08,4.86-2.83,2.21-7.62,8.55-8.64,12.01-.06.22-.12.23-.21.26-1.06.31-3.77-1-4.86-1.95-.25-.22-1.05-1-1.09-2.1-.03-.79.36-1.61,1.17-2.42,2.66-2.7,2.74-3.89,2.65-6.11-.01-.33-.03-.69-.03-1.11.71-1.88,9.84-8.07,17.66-10.66-.09,1.25.06,2.46.44,3.61ZM24.27,30.17c-.89-1.33.7-2.65.88-2.79.69-.55,2.26-1.3,3.24-.25,1.78,1.92,4.17,4.77,7.09,8.46-.51,1.47-.87,3.28-1.08,5.43-1.5-1.22-2.87-1.68-4.07-1.71-1.99-3.03-4.02-6.1-6.06-9.14ZM63.21,64.3c-1.1,1.74-2.06,3.66-3.07,5.7-3.21,6.43-6.52,13.09-14.39,13.09s-14.19-6.69-18.51-19.89c-2.8-8.55-1.63-17.84,1.25-20.14.73-.58,2.43-1.94,5.59,1.94.04.05.08.08.13.13-.03,2.41.08,5.12.32,8.16.06.8.73,1.4,1.52,1.4.04,0,.08,0,.12,0,.84-.07,1.46-.8,1.4-1.64-.94-11.76.38-16.41,1.65-18.24,3.45-4.97,10.27-5.5,13.04-5.5,2.23,0,4.28.76,6.22,2.29-6.17,3.22-11.59,7.29-11.59,9.84,0,.5.02.93.03,1.32.07,1.63.08,1.97-1.77,3.85-1.76,1.79-2.08,3.53-2.04,4.67.08,2.25,1.51,3.75,2.12,4.28.95.83,3.97,2.75,6.53,2.75.41,0,.8-.05,1.17-.16,1.13-.33,1.94-1.15,2.29-2.32.83-2.79,5.24-8.63,7.6-10.48.92-.72,1.96-1.49,3.15-2.2,3.81,7.87,1.67,14.18-2.76,21.17ZM76.47,35.56c-.56.86-1.62,1.48-3.07,1.81-1.24-1.39-2.09-2.7-2.48-3.87-.37-1.1-.39-2.25-.12-3.51.51-.1,1.01-.18,1.49-.23,1.12-.06,3.73.09,4.47,2.67h0c.25.85.4,2.08-.28,3.13Z"/>
</svg>