<?xml version="1.0" encoding="UTF-8"?>
<svg id="Layer_1" data-name="Layer 1" xmlns="http://www.w3.org/2000/svg" viewBox="0 0 100.95 100.95">
  <defs>
    <style>
      .cls-1 {
        fill: #000;
      }

      .cls-1, .cls-2 {
        stroke-width: 0px;
      }

      .cls-3 {
        opacity: .6;
      }

      .cls-2 {
        fill: #f3d2d2;
      }
    </style>
  </defs>
  <circle class="cls-2" cx="50.47" cy="50.47" r="50.47"/>
  <g class="cls-3">
    <path class="cls-1" d="M50.98,79.1c-5.71,0-11.42,0-17.13,0-5.3,0-9.95-3.38-11.61-8.39-.41-1.24-.62-2.51-.62-3.81,0-6.07,0-12.14,0-18.21,0-1.3.79-1.94,2.07-1.72,1.17.2,2.26.64,3.32,1.15.81.39,1.61.8,2.42,1.2.26.13.53.25.81.36,2.17.89,2.97.72,4.58-.96.85-.88,1.61-1.85,2.56-2.64,1.1-.91,2.32-1.52,3.8-1.44.95.05,1.82.34,2.66.79,1.02.54,1.97,1.19,2.8,1.97,1.62,1.52,3.43,1.81,5.49,1.11,1.93-.66,3.88-1.29,5.82-1.91.83-.27,1.67-.44,2.53-.58,1.85-.29,3.51.15,5.01,1.23.64.46,1.25.95,1.88,1.42.49.36.99.7,1.59.84.99.23,1.95.14,2.61-.68,1.66-2.05,3.83-2.46,6.27-2.07.37.06.75.1,1.12.16.86.14,1.35.7,1.37,1.58,0,.08,0,.16,0,.25,0,6,0,12.01,0,18.01-.01,6.02-4.06,10.95-9.94,12.12-.79.16-1.59.22-2.39.22-5.68,0-11.35,0-17.03,0ZM50.99,76.02c4.81,0,9.62,0,14.43,0,1.11,0,2.23.03,3.34-.03,4.47-.24,8.28-3.95,8.46-8.43.14-3.36.04-6.74.05-10.11,0-.22-.06-.31-.29-.34-1.17-.16-2.29-.07-3.3.61-1.18.8-2.48,1.11-3.9,1.12-1.79.02-3.41-.55-4.96-1.37-1.49-.79-3.05-.99-4.71-.77-2.26.29-4.48.79-6.69,1.29-3.16.71-6.16.49-9.02-1.14-.54-.31-1.12-.53-1.71-.73-1.49-.49-2.9-.38-4.22.51-.64.43-1.28.84-1.93,1.26-1.81,1.18-3.78,1.52-5.91,1.16-1.82-.31-3.6-.82-5.39-1.26-.41-.1-.57-.09-.56.41.02,2.86.01,5.72.01,8.59,0,.66.05,1.31.19,1.95.94,4.32,4.6,7.27,9.07,7.27,5.68.01,11.35,0,17.03,0ZM24.7,50.46c0,1.32,0,2.59,0,3.86,0,.19.11.24.27.28,1.8.4,3.57.94,5.38,1.33,1.95.42,3.72.2,5.32-1.09.62-.5,1.33-.89,2.04-1.26,1.48-.76,3.03-.98,4.67-.68,1.47.27,2.8.88,4.11,1.56,1.6.83,3.27,1.04,5.04.78,2.41-.35,4.78-.93,7.17-1.39,2.73-.53,5.33-.34,7.8,1.05.48.27,1,.5,1.54.64,1.35.37,2.71.46,3.93-.35,1.51-1,3.14-1.33,4.91-1.15.3.03.4-.02.4-.34-.02-1.18-.02-2.36,0-3.53,0-.31-.12-.36-.4-.4-1.25-.18-2.26.17-3.09,1.17-1.06,1.27-2.49,1.8-4.14,1.78-1.41-.02-2.65-.51-3.78-1.32-.74-.53-1.46-1.11-2.2-1.65-.82-.59-1.72-.82-2.73-.67-1.04.15-2.04.44-3.04.77-1.95.65-3.88,1.38-5.88,1.88-2.31.58-4.41.22-6.32-1.21-.68-.51-1.35-1.03-2.03-1.55-.49-.38-.99-.75-1.57-.99-.94-.39-1.81-.31-2.61.37-.65.56-1.22,1.18-1.79,1.82-.66.73-1.33,1.44-2.13,2.03-1.32.98-2.78,1.31-4.4.98-1.53-.31-2.91-.97-4.28-1.66-.7-.35-1.38-.74-2.18-1.03Z"/>
    <path class="cls-1" d="M72.59,35.22v-.7c0-3.81,0-7.62,0-11.43,0-.28,0-.56.08-.83.2-.61.81-1.04,1.46-1.04.66,0,1.24.44,1.45,1.06.08.25.08.51.08.78,0,3.84,0,7.69,0,11.53,0,.17-.05.35.07.56.7-.6,1.39-1.21,2.09-1.78.52-.43,1.18-.47,1.74-.15.56.32.84.93.74,1.59-.06.37-.24.68-.52.92-1.55,1.33-3.09,2.68-4.65,4-.62.53-1.4.53-2.02,0-1.56-1.32-3.11-2.66-4.65-4-.68-.6-.74-1.55-.17-2.19.57-.65,1.49-.7,2.2-.11.68.56,1.34,1.15,2.1,1.8Z"/>
    <path class="cls-1" d="M52.52,31.19c.73-.63,1.36-1.17,1.99-1.71.79-.68,1.71-.66,2.31.03.6.69.48,1.62-.3,2.29-1.46,1.26-2.92,2.52-4.39,3.78-.78.67-1.52.68-2.29.01-1.5-1.29-3-2.58-4.5-3.88-.49-.42-.69-.95-.52-1.58.16-.61.57-.98,1.18-1.12.52-.11.97.05,1.36.39.66.57,1.33,1.14,2.01,1.73.13-.21.08-.39.08-.56,0-3.91,0-7.82,0-11.73,0-1.19,1.04-1.95,2.09-1.54.62.24.97.8.97,1.56,0,2.29,0,4.58,0,6.87,0,1.78,0,3.56,0,5.46Z"/>
    <path class="cls-1" d="M29.37,35.22c.77-.66,1.44-1.26,2.13-1.82.95-.78,2.29-.31,2.52.86.11.56-.06,1.05-.48,1.42-1.57,1.36-3.14,2.72-4.72,4.06-.6.5-1.38.49-1.98-.02-1.57-1.33-3.13-2.68-4.68-4.03-.66-.58-.7-1.52-.15-2.16.55-.64,1.47-.72,2.16-.15.69.57,1.36,1.17,2.05,1.76.16-.18.09-.37.09-.53,0-3.84,0-7.69,0-11.53,0-.28,0-.55.09-.82.24-.67.91-1.11,1.61-1.03.73.08,1.3.66,1.36,1.39.01.18,0,.36,0,.54,0,3.79,0,7.59,0,11.38v.68Z"/>
    <path class="cls-1" d="M71.7,64.94c.43,0,.85-.01,1.28,0,.89.04,1.53.69,1.53,1.53,0,.84-.65,1.5-1.54,1.53-.83.02-1.67.02-2.5,0-.91-.02-1.56-.7-1.55-1.56.01-.84.66-1.47,1.56-1.5.41-.01.82,0,1.23,0Z"/>
    <path class="cls-1" d="M49.73,66.35c-.43,0-.85.01-1.28,0-.88-.04-1.53-.7-1.53-1.54,0-.84.65-1.5,1.53-1.52.85-.02,1.7-.02,2.55,0,.86.02,1.49.67,1.5,1.5.01.82-.61,1.5-1.46,1.55-.44.03-.88,0-1.32,0,0,0,0,0,0,0Z"/>
    <path class="cls-1" d="M59.56,69.79c.43,0,.85-.01,1.28,0,.85.03,1.49.67,1.5,1.5.01.85-.63,1.53-1.5,1.55-.87.02-1.73.02-2.6,0-.84-.02-1.49-.7-1.49-1.52,0-.82.65-1.49,1.48-1.53.44-.02.88,0,1.32,0Z"/>
    <path class="cls-1" d="M40.92,74.4c-.43,0-.85.01-1.28,0-.88-.04-1.53-.7-1.53-1.54,0-.84.65-1.5,1.54-1.52.85-.02,1.7-.02,2.55,0,.86.02,1.49.67,1.49,1.5,0,.83-.6,1.5-1.46,1.55-.44.03-.88,0-1.32,0,0,0,0,0,0,0Z"/>
    <path class="cls-1" d="M31.1,65.76c.43,0,.85-.01,1.28,0,.84.03,1.48.69,1.49,1.52,0,.83-.63,1.51-1.47,1.53-.88.03-1.77.03-2.65,0-.84-.03-1.47-.72-1.46-1.54.01-.82.66-1.48,1.5-1.51.44-.01.88,0,1.32,0Z"/>
  </g>
</svg>