<?xml version="1.0" encoding="UTF-8"?>
<svg id="Layer_1" data-name="Layer 1" xmlns="http://www.w3.org/2000/svg" viewBox="0 0 100.95 100.95">
  <defs>
    <style>
      .cls-1 {
        fill: #000;
      }

      .cls-1, .cls-2 {
        stroke-width: 0px;
      }

      .cls-3 {
        opacity: .6;
      }

      .cls-2 {
        fill: #f3d2d2;
      }
    </style>
  </defs>
  <circle class="cls-2" cx="50.47" cy="50.47" r="50.47"/>
  <g class="cls-3">
    <path class="cls-1" d="M51,30.98h-.02c-11.78,0-21.38,9.49-21.4,21.16-.01,5.64,2.15,10.96,6.07,14.99,4,4.1,9.38,6.36,15.17,6.37h.03c11.69,0,21.23-9.51,21.27-21.21.02-5.67-2.19-11.02-6.21-15.06-4-4.02-9.3-6.24-14.92-6.25ZM68.67,52.21c0,4.78-1.86,9.28-5.23,12.65-3.36,3.36-7.84,5.21-12.6,5.21h-.02c-9.81-.01-17.79-8.06-17.78-17.94,0-9.76,8-17.71,17.82-17.71,9.82,0,17.82,7.98,17.82,17.78Z"/>
    <path class="cls-1" d="M81.71,50.53h-.01c-3.84,0-6.99,3.09-7.01,6.9-.02,3.86,3.1,7.03,6.95,7.07h.07c1.8,0,3.52-.72,4.84-2.03,1.34-1.33,2.11-3.14,2.11-4.98,0-3.77-3.18-6.96-6.96-6.96ZM85.21,57.52c-.01,1.94-1.59,3.52-3.53,3.53h0c-.93,0-1.81-.37-2.48-1.03-.68-.68-1.05-1.59-1.05-2.56,0-.95.36-1.82,1.01-2.46.66-.65,1.56-1.01,2.55-1.01h.04c1.96.02,3.48,1.57,3.46,3.54Z"/>
    <path class="cls-1" d="M75.81,42.34c2.63-3.54,3.08-7.28,1.31-11.11-1.81-3.93-5.05-6.04-9.65-6.29h-.02c-2.05.01-4.04.57-5.89,1.74-.45.28-.87.61-1.26.97-.69.64-.79,1.56-.25,2.29.57.76,1.49.9,2.33.38.13-.08.25-.17.37-.27l.15-.12c2.98-2.25,7.03-2,9.63.58,2.66,2.65,2.91,6.63.61,9.68l-.07.09c-.15.19-.29.38-.4.59-.39.73-.24,1.49.38,2.03.34.29.72.44,1.11.44.32,0,.65-.1.95-.31.24-.16.47-.39.7-.7Z"/>
    <path class="cls-1" d="M32.83,34.42c1.6,0,3.14-.64,4.33-1.82,1.2-1.18,1.88-2.79,1.88-4.42,0-1.66-.65-3.22-1.84-4.4-1.18-1.18-2.75-1.83-4.41-1.83h0c-1.66,0-3.22.65-4.41,1.84-1.18,1.18-1.83,2.75-1.82,4.41,0,3.34,2.85,6.18,6.2,6.22h.06ZM30.85,30.15c-.53-.54-.83-1.24-.82-1.99,0-1.57,1.21-2.75,2.79-2.75h.02c.76,0,1.46.29,1.96.8.51.52.79,1.23.78,2.01-.01,1.51-1.26,2.75-2.78,2.75h0c-.73,0-1.43-.29-1.95-.82Z"/>
    <path class="cls-1" d="M26.01,57.99c-1.7.17-3.38-.37-4.61-1.45-1.16-1.02-1.84-2.42-1.9-3.95-.07-1.7.5-3.26,1.6-4.4,1.1-1.13,2.66-1.73,4.33-1.73h.32c.27.02.54.02.8-.01.8-.1,1.36-.64,1.48-1.45.11-.78-.28-1.45-1.04-1.78-.25-.11-.54-.17-.89-.2-2.94-.21-5.73.87-7.65,3-1.93,2.13-2.74,5.02-2.24,7.93.74,4.22,4.82,7.53,8.96,7.53.42,0,.84-.03,1.26-.11,1.07-.18,1.74-.97,1.61-1.92-.12-.95-.98-1.57-2.03-1.47Z"/>
    <path class="cls-1" d="M55.28,75.67c-.85.03-1.54.71-1.64,1.62-.01.13-.01.26-.01.39v.17c-.04,1.51-1.29,2.73-2.78,2.73h-.02c-1.51-.01-2.72-1.23-2.76-2.77v-.14c0-.22,0-.46-.07-.71-.17-.7-.68-1.17-1.39-1.29-.67-.11-1.28.16-1.66.73-.31.46-.34.99-.34,1.44,0,2.83,2.09,5.42,4.86,6.02.44.09.88.14,1.32.14,2.46,0,4.79-1.44,5.75-3.7.5-1.17.65-2.17.49-3.13-.15-.88-.85-1.53-1.76-1.51Z"/>
    <path class="cls-1" d="M61.54,49.88c-1.1-1.43-2.65-2.27-4.36-2.36-1.7-.1-3.34.58-4.6,1.89-2.52,2.63-2.62,6.97-.23,9.89,1.05,1.28,2.53,2.04,4.15,2.14.12,0,.23.01.35.01,1.5,0,2.91-.58,4.02-1.64.83-.8.92-1.82.23-2.56-.33-.35-.75-.55-1.19-.55-.47-.02-.93.19-1.32.58-.62.61-1.38.87-2.15.71-.85-.17-1.58-.8-2-1.75.78,0,1.55,0,2.33,0h1.33s.61,0,.61,0c.75,0,1.5,0,2.25,0,.74,0,1.3-.22,1.67-.62.36-.39.51-.95.45-1.66-.13-1.54-.65-2.91-1.54-4.07ZM54.41,52.78c.38-1.05,1.4-1.8,2.46-1.8h0c1.06,0,2.08.75,2.46,1.8-.32,0-.64,0-.97,0-.25,0-.51,0-.77,0h-.76s-.75,0-.75,0c-.53,0-1.06,0-1.66,0Z"/>
    <path class="cls-1" d="M47.58,50.53c-1.26-.01-2.52-.02-3.77,0-.01,0-.03,0-.04,0-.13,0-.19-.02-.2,0,0-.02-.02-.08-.02-.2.03-1.15.03-2.33,0-3.63,0-.15.02-.22.01-.22.02,0,.09-.03.22-.02,1.26.02,2.52.02,3.77,0,1.15-.02,1.99-.75,1.99-1.74,0-.44-.15-.83-.45-1.13-.36-.37-.9-.56-1.57-.57-1.75,0-3.51,0-5.26,0-1.54,0-2.17.63-2.17,2.15,0,1.6,0,3.2,0,4.8v2.18s0,6.68,0,6.68c0,.35,0,.69.04,1.04.1.89.85,1.59,1.69,1.59h0c.84,0,1.56-.67,1.7-1.56.03-.23.03-.46.03-.69v-.13s0-1.24,0-1.24c0-1.19,0-2.38-.01-3.57,0-.19.02-.26.02-.26.01,0,.08-.03.25-.03,1.14.03,2.37.03,3.78,0,.6-.01,1.13-.23,1.5-.61.31-.32.47-.75.46-1.19-.03-.99-.8-1.63-1.97-1.64Z"/>
  </g>
</svg>