<?xml version="1.0" encoding="UTF-8"?>
<svg id="Layer_1" data-name="Layer 1" xmlns="http://www.w3.org/2000/svg" viewBox="0 0 100.95 100.95">
  <defs>
    <style>
      .cls-1 {
        fill: #000;
      }

      .cls-1, .cls-2 {
        stroke-width: 0px;
      }

      .cls-3 {
        opacity: .6;
      }

      .cls-2 {
        fill: #c5eabe;
      }
    </style>
  </defs>
  <circle class="cls-2" cx="50.47" cy="50.47" r="50.47"/>
  <g class="cls-3">
    <path class="cls-1" d="M65.64,42.17c1.17.01,2.19.05,3.21.23.77.14,1.27.5,1.21,1.32-.06.78-.59,1.03-1.33,1.06-1.53.04-2.16.96-1.7,2.39.31.98.95,1.67,1.93,1.96,1.12.33,2.18.8,3.23,1.32,1.14.58,2.27.48,3.28-.34.86-.7.93-1.62.15-2.39-.59-.59-1.03-1.18-.36-1.9.69-.76,1.38-.36,2.05.16,1.58,1.21,2.98,2.61,4.16,4.22.44.6.66,1.23.03,1.8-.66.59-1.25.36-1.85-.23-.93-.92-1.93-.79-2.66.31-.65.97-.68,2-.16,3.02.53,1.04,1,2.1,1.34,3.23.26.85.82,1.48,1.65,1.84,1.59.68,2.63.04,2.7-1.69.03-.69.31-1.19,1.01-1.27.75-.08,1.21.33,1.33,1.07.37,2.18.38,4.37.02,6.55-.12.72-.51,1.2-1.27,1.15-.76-.05-1.07-.55-1.09-1.3-.05-1.65-1.12-2.31-2.65-1.66-.83.35-1.44.95-1.69,1.8-.34,1.16-.83,2.25-1.37,3.33-.45.91-.41,1.86.06,2.76.67,1.27,1.8,1.46,2.84.48.1-.1.19-.22.3-.29.5-.34,1.01-.35,1.46.05.45.39.59.91.25,1.43-1.3,2.02-2.99,3.67-4.98,5.01-.52.35-1.11.23-1.53-.27-.39-.47-.38-1.04.03-1.45.66-.67,1.23-1.32.66-2.31-.47-.82-1.86-1.45-2.9-1.1-1.63.56-3.22,1.25-4.78,1.99-.9.43-1.24,1.34-1.34,2.29-.1.97.59,1.7,1.61,1.66.87-.03,1.53.18,1.6,1.12.08.91-.63,1.19-1.37,1.3-2.08.31-4.16.32-6.23-.05-.72-.13-1.23-.48-1.17-1.25.06-.8.61-1.1,1.4-1.12,1.52-.04,2.13-.96,1.63-2.41-.31-.93-.92-1.59-1.86-1.89-1.15-.36-2.25-.83-3.33-1.38-.99-.5-1.99-.44-2.93.16-1.16.74-1.27,1.71-.33,2.72.02.03.05.05.08.07.55.51.67,1.12.18,1.69-.49.58-1.12.51-1.72.09-1.79-1.25-3.3-2.78-4.56-4.55-.42-.58-.53-1.22.04-1.72.61-.53,1.21-.35,1.78.2,1.02.99,2.05.83,2.78-.38.53-.89.61-1.83.16-2.74-.56-1.15-1.04-2.31-1.46-3.52-.4-1.16-1.31-1.83-2.56-1.91-1.1-.07-1.79.53-1.74,1.63.04.83-.2,1.44-1.05,1.55-.91.11-1.22-.56-1.34-1.32-.34-2.04-.33-4.09-.01-6.13.12-.77.45-1.42,1.33-1.33.86.09,1.08.73,1.07,1.55-.01,1.14.74,1.75,1.86,1.61,1.24-.16,2.09-.86,2.48-2.03.37-1.11.79-2.19,1.33-3.23.55-1.06.47-2.13-.2-3.12-.7-1.03-1.72-1.14-2.58-.25-.56.58-1.15.92-1.83.32-.66-.58-.46-1.25.01-1.89,1.22-1.67,2.66-3.11,4.34-4.33.65-.47,1.3-.68,1.87.03.52.65.24,1.22-.3,1.77-.9.92-.77,1.96.32,2.66.97.63,2.02.67,3.03.15,1.05-.53,2.11-.97,3.23-1.32,1.2-.38,1.99-1.43,2.05-2.57.05-1.09-.54-1.78-1.62-1.78-.8,0-1.48-.13-1.56-1.03-.09-.94.57-1.23,1.4-1.37,1.02-.17,2.04-.17,2.92-.21ZM66.03,62.96c.04-1.23-.9-2.22-2.14-2.27-1.1-.04-1.99.76-2.05,1.83-.07,1.23.96,2.31,2.22,2.33,1.11.02,1.94-.78,1.98-1.89ZM71.92,53.68c-.9-.01-1.13.58-1.15,1.32-.03,1.16,1,2.66,2.08,3.09.81.32,1.46.07,1.71-.67.45-1.39-1.18-3.71-2.63-3.73ZM72.22,68.4c1.21.02,2.64-1.57,2.51-2.79-.07-.64-.42-.93-1.06-.89-1.19.07-2.52,1.61-2.41,2.79.06.59.37.88.96.89ZM62.49,54.5c.61-.06,1.23-.18,1.77-.56.38-.27.71-.61.62-1.13-.08-.46-.44-.7-.85-.84-1.08-.37-2.09-.19-2.97.52-.66.53-.55,1.31.2,1.71.38.2.79.27,1.24.3ZM54.87,61.86c0,.72.1,1.2.4,1.61.53.73,1.28.65,1.61-.19.34-.84.26-1.67-.26-2.42-.48-.68-1.23-.59-1.56.18-.14.31-.16.68-.19.81ZM63.68,71.75c.58-.02,1.1-.07,1.19-.69.07-.53-.96-1.23-1.76-1.2-.49.02-1.12.1-1.03.75.13.88.92,1.04,1.6,1.14Z"/>
    <path class="cls-1" d="M15.81,38.85c0-3.61,0-7.22,0-10.83,0-1.83.33-2.17,2.13-2.26,7.58-.36,14.85-1.93,21.63-5.44.38-.19.74-.42,1.1-.63.57-.33,1.13-.31,1.71.01,6.99,3.96,14.59,5.63,22.53,6.05,2.01.11,2.32.41,2.32,2.41,0,3.22,0,6.44,0,9.66,0,.68-.18,1.26-.8,1.62-.55.31-1.09.26-1.6-.08-.6-.4-.69-1.03-.69-1.69,0-2.62-.02-5.24.03-7.86.01-.78-.22-1-1-1.07-6.85-.55-13.51-1.99-19.72-5.02-1.4-.69-2.42-.73-3.85-.02-6.2,3.05-12.85,4.5-19.71,5.03-.92.07-1.06.42-1.06,1.23.03,5.87,0,11.75.02,17.62.03,13.76,8.83,26.13,21.79,30.7.61.21,1.14.21,1.73,0,1.56-.58,3.1-1.21,4.55-2.03.49-.27.84-.38.96.34.03.17.16.31.24.47.88,1.64.89,1.65-.84,2.46-.99.47-2.04.82-3.01,1.32-1.87.96-3.64.77-5.57.01-13.95-5.48-22.85-18.41-22.9-33.41,0-2.87,0-5.73,0-8.6Z"/>
    <path class="cls-1" d="M24.99,42.85c0-2.49,0-4.62,0-6.74,0-1.33.37-1.78,1.66-2.01,4.81-.87,9.51-2.15,14.02-4.08.55-.24,1.07-.27,1.63-.03,4.53,1.96,9.27,3.23,14.12,4.12,1.19.22,1.6.68,1.62,1.84.02,1.7.02,3.4,0,5.1-.02,1.22-.6,1.86-1.57,1.85-.97-.01-1.5-.67-1.51-1.9-.01-1.13-.02-2.26,0-3.4.01-.47-.13-.67-.62-.77-4.24-.85-8.39-1.99-12.38-3.66-.41-.17-.75-.04-1.12.11-3.81,1.55-7.74,2.7-11.78,3.46-.78.15-1.01.46-1,1.25.07,3.71-.14,7.44.13,11.14.63,8.7,5,15.05,12.62,19.22.54.29.98.27,1.48-.04.45-.28.92-.53,1.41-.73.78-.31,1.51-.16,1.93.6.43.77.31,1.55-.48,2.04-.99.62-2.03,1.15-3.12,1.58-.52.2-.97.07-1.43-.15-8.33-3.97-13.43-10.47-15.21-19.54-.62-3.19-.35-6.42-.41-9.27Z"/>
  </g>
</svg>