<?xml version="1.0" encoding="UTF-8"?>
<svg id="Layer_1" data-name="Layer 1" xmlns="http://www.w3.org/2000/svg" viewBox="0 0 100.95 100.95">
  <defs>
    <style>
      .cls-1 {
        fill: #000;
        opacity: .6;
      }

      .cls-1, .cls-2 {
        stroke-width: 0px;
      }

      .cls-2 {
        fill: #f3d2d2;
      }
    </style>
  </defs>
  <circle class="cls-2" cx="50.47" cy="50.47" r="50.47"/>
  <path class="cls-1" d="M80.69,25.92c-.09-1.49-.72-2.79-1.76-3.66-1.12-.94-2.52-1.3-3.74-1.56-.82-.17-1.66-.25-2.47-.31-.44-.04-.88-.07-1.31-.13h-.02s-27.42,0-27.42,0c-.33.05-.67.09-1,.14-1.02.14-2.08.28-3.1.53-7.18,1.72-12.61,5.78-16.14,12.06-1.91,3.4-3.02,7.14-3.4,11.43,0,.08-.03.16-.04.24l-.03.18v25.38l.02.1c.06.13.06.28.06.45,0,.07,0,.14,0,.22.12,1.85.32,4,1.03,6.04.33.95.79,2.02,1.75,2.81.7.58,1.56.86,2.46.86,1.02,0,2.09-.37,2.97-1.1,1.18-.97,1.93-2.2,2.7-3.76.03-.06.05-.1.07-.12.02.02.05.06.09.1,1.06,1.27,2.44,2.12,4.09,2.53,2.38.59,4.81.52,7.23-.21,2.37-.7,3.89-2.27,4.53-4.65.32-1.18.45-2.47.41-3.84l-.03-.89c-.05-1.48-.11-3.02-.06-4.52.04-1.2.26-2.23.67-3.14.11-.26.18-.28.45-.16.64.28,1.01.8,1.22,1.68.2.84.23,1.71.23,2.38,0,2.02,0,4.04,0,6.06,0,2.11,0,4.22,0,6.34,0,1.77,1.34,3.21,3.03,3.29.06,0,.13,0,.19,0,1.78,0,3.13-1.2,3.32-2.97.05-.46.07-.9.07-1.31v-4.28c.01-5.08.02-10.32-.02-15.49,0-1.2.29-1.96,1.04-2.62,2.07-1.84,3.64-4.21,4.77-7.25.51-1.35,1.13-2.76,1.92-4.3,1.09-2.14,2.42-3.8,4.06-5.07,1.61-1.24,3.36-2.24,5.31-3.32l.15-.08c1.79-.99,3.65-2.02,5.11-3.59,1.1-1.19,1.68-2.82,1.57-4.47ZM56.77,47.24c.05-4.52.45-7.96,1.32-11.16.38-1.41.89-2.62,1.55-3.69.91-1.46,2.34-2.27,4.52-2.55.11-.02.1-.01.17.23.26,1,.85,1.81,1.74,2.41.67.45,1.41.36,1.85-.21.23-.3.33-.67.27-1.01-.06-.34-.26-.64-.57-.84-.54-.35-.88-1.07-.89-1.89,0-.85.32-1.58.89-1.97.32-.22.52-.52.57-.86.05-.34-.04-.69-.27-.98-.46-.59-1.19-.67-1.9-.19-.84.56-1.4,1.32-1.66,2.26-.09.32-.22.42-.56.46-3.24.34-5.57,1.92-6.93,4.7-.85,1.74-1.48,3.71-1.93,6-.25,1.33-.66,2.55-1.21,3.64-.41.81-.93,1.58-1.96,1.76-.36.06-.7-.02-1.11-.12-.84-.2-1.65-.57-2.42-.93-.19-.09-.38-.17-.57-.26-2.56-1.14-5.3-1.49-7.4-1.67-1.37-.11-2.69-.16-4.27-.21-.33-.01-.42-.08-.5-.37-.27-.98-.86-1.76-1.76-2.33-.65-.41-1.37-.32-1.8.23-.45.57-.34,1.33.25,1.84.62.54.97,1.22.98,1.91.01.69-.31,1.38-.9,1.93-.92.86-.58,1.57-.3,1.92.46.58,1.21.61,1.95.09.81-.57,1.34-1.33,1.59-2.24.08-.31.1-.34.31-.35,3.1.05,6.4.19,9.58,1.17.64.2,1.3.48,1.99.86,1.78.96,2.7,2.49,2.73,4.54.02,1.43.02,2.86.02,4.29,0,.91,0,1.82,0,2.72,0,.24-.06.33-.28.42-1.67.68-3.48,1.09-5.54,1.25-.42.03-.84.05-1.26.06-.99.03-2.02.07-3.03.35-2.3.64-4.2,2.13-5.81,4.54-1.52,2.28-2.54,4.84-3.51,7.31l-.47,1.19c-.61,1.56-1.24,3.17-2.15,4.61-.42.67-.91,1.34-1.68,1.73-.91.47-1.65.25-2.15-.64-.82-1.46-1.01-3.09-1.15-4.63-.39-4.52-.37-9.12-.35-13.58,0-1.29,0-2.58,0-3.87,0-.65,0-1.3-.01-1.95-.02-2.54-.04-5.16.12-7.74.21-3.35.96-6.51,2.25-9.41,1.01-2.28,2.22-4.19,3.68-5.85,2.96-3.36,6.81-5.61,11.43-6.68,1.95-.45,4.07-.67,6.67-.68,3.62-.02,7.19-.03,10.74-.03,3.09,0,6.17,0,9.25.04h.87c2.37.02,4.81.04,7.17.54.13.03.26.06.39.09l.29.07c1.21.27,2.04.98,2.32,1.99.31,1.14-.09,2.48-1,3.35-.73.7-1.59,1.33-2.63,1.93-.79.46-1.59.91-2.39,1.36-.87.49-1.73.98-2.59,1.48-3.72,2.16-6.41,5.34-8.22,9.72-.15.38-.31.75-.46,1.13-.64,1.59-1.31,3.24-2.2,4.75-.46.78-1.07,1.4-1.71,2.06v-.98c0-1.02,0-2.04,0-3.06ZM44.96,67.51c.07,1.5.14,3.04-.09,4.55-.34,2.26-1.66,3.52-4.02,3.85-.59.08-1.2.1-1.78.12h-.4c-1.54.07-2.72-.17-3.74-.69-1-.51-1.73-1.27-2.23-2.32-.09-.19-.1-.33-.05-.47l.36-.91c.88-2.26,1.79-4.6,3.07-6.72,1.02-1.7,2.13-2.81,3.49-3.49.75-.38,1.55-.59,2.36-.63.28-.01.56-.03.84-.04.86-.04,1.74-.07,2.62-.17l.11-.02s.08-.01.12-.02c0,.02-.01.06-.03.1-.77,2.17-.74,4.39-.62,6.87ZM52.06,46.12c-.04-.08-.06-.14-.07-.17.03,0,.09-.02.2-.03.65-.05,1.26-.29,1.94-.76v31.61s0,.16,0,.16c0,.24,0,.46-.08.67-.12.31-.34.44-.67.42-.31-.01-.48-.15-.57-.46-.08-.29-.08-.59-.08-.91v-5.04c0-7.46,0-14.92,0-22.39,0-1.12-.22-2.17-.66-3.11Z"/>
</svg>