<?xml version="1.0" encoding="UTF-8"?>
<svg id="Layer_1" data-name="Layer 1" xmlns="http://www.w3.org/2000/svg" viewBox="0 0 100.95 100.95">
  <defs>
    <style>
      .cls-1 {
        fill: #000;
      }

      .cls-1, .cls-2 {
        stroke-width: 0px;
      }

      .cls-3 {
        opacity: .6;
      }

      .cls-2 {
        fill: #f3d2d2;
      }
    </style>
  </defs>
  <circle class="cls-2" cx="50.47" cy="50.47" r="50.47"/>
  <g class="cls-3">
    <path class="cls-1" d="M52.74,63.19c1.24-.98,2.3-2.06,3.2-3.3.19-.26.44-.13.66-.11,2.21.17,4.3-.26,6.26-1.28,4.37-2.25,6.82-7.12,6.07-12.03-.73-4.83-4.5-8.73-9.29-9.61-6.6-1.21-12.79,3.26-13.63,9.91-.41,3.22.43,6.14,2.46,8.7.23.28.23.43-.04.67-.84.78-1.77,1.4-2.81,1.88-.27.12-.41.08-.58-.16-2.5-3.31-3.61-7.03-3.18-11.15.58-5.5,3.3-9.72,8.19-12.29,5.69-2.99,11.3-2.53,16.64,1.06.29.2.43.21.69-.05,2.17-2.19,4.36-4.37,6.53-6.55.08-.08.2-.14.22-.31-.8.06-1.59.11-2.39.18-1.25.1-2.49.21-3.74.31-1.27.1-1.79-.34-1.89-1.61-.03-.37-.06-.74-.06-1.11,0-.76.48-1.31,1.24-1.38,2.57-.22,5.13-.42,7.7-.62,1.69-.14,3.38-.26,5.07-.41,1.02-.09,1.55.35,1.5,1.37-.16,2.85-.35,5.7-.52,8.56-.09,1.49-.18,2.97-.28,4.46-.05.82-.61,1.35-1.43,1.33-.46,0-.92-.03-1.38-.08-.89-.09-1.37-.64-1.31-1.53.11-1.86.23-3.71.34-5.57.01-.23.02-.47.04-.71-.21.02-.28.17-.38.27-2.1,2.09-4.19,4.2-6.3,6.28-.27.27-.3.43-.07.75,5.78,8.08,2.75,19.41-6.3,23.5-3.48,1.57-7.09,1.79-10.78.78-.09-.02-.17-.05-.25-.08-.04-.01-.08-.04-.19-.08Z"/>
    <path class="cls-1" d="M46.48,34.33c-.69.6-1.4,1.18-2.01,1.88-.37.43-.74.85-1.09,1.3-.15.19-.28.25-.52.23-3.43-.28-6.46.7-8.97,3.06-2.8,2.62-3.99,5.9-3.59,9.68.57,5.4,4.58,9.47,9.95,10.24,6.23.9,12.18-3.62,12.99-9.84.43-3.32-.39-6.29-2.46-8.9-.21-.26-.18-.39.05-.61.84-.8,1.79-1.43,2.84-1.91.25-.11.39-.08.56.14,4.78,6.01,4.26,15.18-1.17,20.61-5.62,5.62-14.02,6.34-20.53,1.74-.25-.18-.38-.16-.58.05-1.2,1.22-2.41,2.43-3.64,3.63-.24.24-.23.36,0,.59,1.09,1.06,2.16,2.14,3.23,3.22.72.73.72,1.49,0,2.22-.26.26-.52.53-.79.79-.64.62-1.43.62-2.06,0-1.11-1.1-2.22-2.2-3.31-3.32-.22-.22-.33-.23-.55,0-.77.79-1.55,1.57-2.33,2.34-.65.65-1.44.66-2.09.03-.31-.3-.62-.6-.91-.92-.56-.62-.55-1.4.04-2,.78-.8,1.57-1.59,2.37-2.37.22-.21.23-.33,0-.56-1.1-1.07-2.18-2.16-3.26-3.25-.71-.71-.71-1.47,0-2.19.25-.26.5-.51.76-.76.7-.68,1.47-.68,2.16,0,1.09,1.08,2.18,2.16,3.25,3.26.23.24.35.25.59,0,1.2-1.23,2.41-2.43,3.63-3.64.2-.2.25-.32.06-.58-4.6-6.36-3.93-15.04,1.71-20.48,4.34-4.19,9.54-5.36,15.36-3.87.11.03.24.02.33.17Z"/>
  </g>
</svg>