<?xml version="1.0" encoding="UTF-8"?>
<svg id="Layer_1" data-name="Layer 1" xmlns="http://www.w3.org/2000/svg" viewBox="0 0 100.95 100.95">
  <defs>
    <style>
      .cls-1 {
        fill: #000;
      }

      .cls-1, .cls-2 {
        stroke-width: 0px;
      }

      .cls-2 {
        fill: #aad6f7;
      }

      .cls-3 {
        opacity: .6;
      }
    </style>
  </defs>
  <circle class="cls-2" cx="50.47" cy="50.47" r="50.47"/>
  <g class="cls-3">
    <path class="cls-1" d="M48.84,74.81c-12.87,0-23.31-10.43-23.32-23.3,0-12.87,10.43-23.31,23.3-23.32,1.35,0,2.69.12,4.02.35.84.15,1.4.94,1.25,1.78-.11.65-.62,1.15-1.27,1.25-7.55,1.24-12.67,8.37-11.43,15.92,1.24,7.55,8.37,12.67,15.92,11.43,2.86-.47,5.51-1.83,7.56-3.88h0c2.06-2.04,3.42-4.69,3.89-7.55.12-.74.76-1.29,1.51-1.29h0c.75,0,1.39.54,1.52,1.28,2.22,12.68-6.25,24.76-18.93,26.98-1.33.23-2.67.35-4.02.35ZM45,31.65c-10.97,2.13-18.14,12.75-16.01,23.72,2.13,10.97,12.75,18.14,23.72,16.01,8.1-1.57,14.44-7.91,16.01-16.01-.5.67-1.04,1.3-1.63,1.88-6.62,6.62-17.35,6.62-23.97,0s-6.62-17.35,0-23.97c.59-.59,1.22-1.13,1.88-1.63Z"/>
    <path class="cls-1" d="M56.54,53.04h-7.7c-.85,0-1.54-.69-1.54-1.54,0-.41.16-.8.45-1.09l5.07-5.07h-3.98c-.85,0-1.54-.69-1.54-1.54s.69-1.54,1.54-1.54h7.7c.85,0,1.54.69,1.54,1.54,0,.41-.16.8-.45,1.09l-5.07,5.07h3.98c.85,0,1.54.69,1.54,1.54s-.69,1.54-1.54,1.54Z"/>
    <path class="cls-1" d="M70.61,38.98h-7.7c-.85,0-1.54-.69-1.54-1.54,0-.41.16-.8.45-1.09l5.07-5.07h-3.98c-.85,0-1.54-.69-1.54-1.54s.69-1.54,1.54-1.54h7.7c.85,0,1.54.69,1.54,1.54,0,.41-.16.8-.45,1.09l-5.07,5.07h3.98c.85,0,1.54.69,1.54,1.54s-.69,1.54-1.54,1.54Z"/>
  </g>
</svg>