<?xml version="1.0" encoding="UTF-8"?>
<svg id="Layer_1" data-name="Layer 1" xmlns="http://www.w3.org/2000/svg" viewBox="0 0 100.95 100.95">
  <defs>
    <style>
      .cls-1 {
        fill: #aad6f7;
        stroke-width: 0px;
      }

      .cls-2 {
        opacity: .6;
      }

      .cls-3 {
        fill: #000;
        stroke: #000;
        stroke-miterlimit: 10;
        stroke-width: .5px;
      }
    </style>
  </defs>
  <circle class="cls-1" cx="50.47" cy="50.47" r="50.47"/>
  <g class="cls-2">
    <path class="cls-3" d="M51.45,49.36c.12-2.11.62-4.08,1.39-5.98.13-.32.26-.65.43-.95.13-.24.1-.35-.13-.5-2.64-1.81-4.36-4.27-5.11-7.39-1.68-6.96,3.14-14.01,10.23-14.97,6.64-.9,12.7,3.51,13.86,10.09.86,4.87-1.38,9.86-5.61,12.49-.29.18-.35.33-.28.66.37,1.64.97,3.22,1.36,4.87.74,3.18,1.15,6.39.91,9.66-.15,2.12-.56,4.18-1.34,6.17-1.42,3.61-4.99,5.8-8.85,5.42-.95-.09-1.9-.21-2.83-.43-.19-.05-.32.02-.46.13-1.04.87-2.1,1.72-3.32,2.35-2.79,1.45-5.78,1.97-8.9,1.9-1.15-.03-2.28-.18-3.42-.35-1.77-.27-3.54-.13-5.3.22-2.45.49-4.77,1.37-6.93,2.61-.83.48-1.7,0-1.7-.96,0-9.59,0-19.17,0-28.76,0-.59.33-1.04.87-1.11,3.19-.4,6.33-.28,9.33,1.01,1.73.75,3.11,1.91,3.99,3.62.12.24.24.15.4.08,1.63-.72,3.33-1.22,5.12-1.37,2.18-.17,4.22.24,6.1,1.38.05.03.1.05.18.09ZM27.62,72.59c.15.03.24-.05.34-.1,1.66-.77,3.37-1.37,5.15-1.76,2.18-.48,4.38-.7,6.59-.34,2.03.32,4.04.43,6.07.17,2.69-.34,5.13-1.28,7.2-3.08.41-.36.86-.69,1.29-1.04.31-.25.65-.33,1.04-.22,1.03.28,2.09.44,3.15.54,2.99.28,5.63-1.33,6.71-4.13.67-1.74,1.03-3.56,1.17-5.41.22-2.93-.14-5.81-.77-8.66-.38-1.71-1.01-3.35-1.39-5.06-.06-.27-.23-.11-.33-.07-2.77.88-5.51.82-8.22-.2-.23-.09-.32-.05-.42.17-.99,2.17-1.61,4.42-1.58,6.83.01.69.15,1.24.6,1.79,1.04,1.25,1.76,2.71,2.36,4.22.24.61-.01,1.23-.58,1.45-.57.23-1.16-.04-1.42-.66-.04-.08-.07-.17-.1-.25-.64-1.53-1.44-2.97-2.58-4.2-1.63-1.75-3.64-2.62-6.03-2.58-1.85.04-3.58.59-5.24,1.36-.15.07-.19.16-.16.32.07.39.11.78.12,1.17.09,2.49-.53,4.85-1.39,7.16-.14.39-.45.61-.87.65-.84.09-1.41-.67-1.12-1.49.49-1.37.91-2.75,1.11-4.19.17-1.21.19-2.42-.12-3.61-.55-2.09-1.98-3.34-3.93-4.06-2.02-.74-4.12-.87-6.25-.77-.32.01-.41.09-.4.42.01,8.44,0,16.88,0,25.32v.33ZM60.01,41.86c5.6,0,10.12-4.55,10.11-10.16,0-5.56-4.55-10.09-10.12-10.09-5.59,0-10.14,4.55-10.13,10.15,0,5.58,4.55,10.11,10.14,10.11Z"/>
    <path class="cls-3" d="M37.43,64.42c-1.16,0-2.31-.07-3.46-.25-.29-.05-.38.03-.44.32-.2,1.02-.51,2-.93,2.95-.21.48-.67.72-1.18.63-.46-.08-.82-.46-.88-.94-.03-.26.06-.49.15-.72.75-1.85,1.11-3.76.98-5.76-.09-1.39-.39-2.73-1-3.99-.29-.59-.09-1.23.46-1.5.55-.27,1.17-.06,1.47.54.73,1.47,1.09,3.04,1.22,4.66.03.46.03.92.04,1.38,0,.15.02.24.21.27,2.97.4,5.91.4,8.8-.55.87-.29,1.68-.68,2.45-1.19.6-.4,1.25-.31,1.6.22.36.54.2,1.18-.42,1.59-1.82,1.21-3.84,1.83-5.98,2.13-1.03.14-2.06.21-3.09.2Z"/>
    <path class="cls-3" d="M52.7,60.99c.02,1.95-.61,3.67-2.06,5.05-.47.44-1.11.45-1.54.02-.43-.42-.44-1.1,0-1.54,1.44-1.42,1.7-3.12,1.21-5-.21-.81.28-1.51,1.06-1.47.48.02.84.32,1,.81.21.68.3,1.38.33,2.12Z"/>
    <path class="cls-3" d="M59.99,40.36c-4.78,0-8.63-3.86-8.63-8.65,0-4.76,3.87-8.62,8.63-8.62,4.77,0,8.64,3.87,8.63,8.65,0,4.76-3.87,8.62-8.64,8.61ZM60,38.2c3.56,0,6.47-2.89,6.47-6.44,0-3.58-2.89-6.49-6.46-6.5-3.57-.01-6.48,2.89-6.49,6.47,0,3.58,2.89,6.48,6.47,6.48Z"/>
    <path class="cls-3" d="M60,28.19c1.96,0,3.54,1.58,3.54,3.53,0,1.96-1.59,3.56-3.55,3.56-1.96,0-3.56-1.62-3.55-3.57.02-1.96,1.6-3.53,3.55-3.52ZM61.38,31.73c0-.76-.61-1.37-1.37-1.38-.77,0-1.4.62-1.4,1.38,0,.75.62,1.37,1.37,1.38.76,0,1.4-.62,1.4-1.39Z"/>
  </g>
</svg>