<svg width="80" height="80" viewBox="0 0 80 80" fill="none" xmlns="http://www.w3.org/2000/svg">
<path d="M13.2122 21.5969L14.5719 20.5644C14.8906 20.3225 15.0819 19.9144 15.0819 19.4775V17.0391H30.7269V77.5009H12.3009C9.42094 77.5009 7.08594 74.8331 7.08594 71.5425V34.6531C7.08594 29.4034 9.38563 24.5025 13.2122 21.5969Z" fill="#78C1F3"/>
<path d="M48.2412 21.5969L46.8816 20.5644C46.5628 20.3225 46.3716 19.9144 46.3716 19.4775V17.0391H30.7266V77.5009H49.1528C52.0328 77.5009 54.3678 74.8331 54.3678 71.5425V34.6531C54.3678 29.4034 52.0681 24.5025 48.2412 21.5969Z" fill="#78C1F3"/>
<path d="M46.8678 2.5H30.7266V17.0381H46.8678C48.3084 17.0381 49.4766 15.87 49.4766 14.4294V5.10875C49.4766 3.66781 48.3084 2.5 46.8678 2.5Z" fill="#78C1F3"/>
<path d="M14.5853 2.5H30.7266V17.0381H14.5853C13.1447 17.0381 11.9766 15.87 11.9766 14.4294V5.10875C11.9766 3.66781 13.1444 2.5 14.5853 2.5Z" fill="#78C1F3"/>
<path d="M7.08594 35.7812H30.7272V61.8681H7.08594V35.7812Z" fill="#78C1F3"/>
<path d="M45.3521 42.0318H75.0533C76.7611 42.0318 77.8061 40.1574 76.908 38.7046L62.0574 14.6805C61.2052 13.3018 59.1999 13.3018 58.3477 14.6805L43.4971 38.7046C42.5993 40.1571 43.6443 42.0318 45.3521 42.0318Z" fill="#F37783"/>
<path d="M47.6107 37.4487L59.2932 18.5499C59.711 17.874 60.6938 17.874 61.1116 18.5499L72.7941 37.4487C73.2344 38.1609 72.7222 39.0796 71.8847 39.0796H48.5197C47.6825 39.0796 47.1704 38.1609 47.6107 37.4487Z" fill="white"/>
<path d="M59.2708 31.43L58.9711 26.9447C58.9148 26.0706 58.8867 25.4434 58.8867 25.0622C58.8867 24.5444 59.0223 24.14 59.2939 23.8494C59.5655 23.5591 59.9227 23.4141 60.3661 23.4141C60.903 23.4141 61.2617 23.5997 61.443 23.9709C61.6239 24.3425 61.7145 24.8778 61.7145 25.5769C61.7145 25.9888 61.6927 26.4072 61.6489 26.8316L61.2464 31.4478C61.2027 31.9972 61.1089 32.4188 60.9655 32.7119C60.8217 33.0053 60.5845 33.1519 60.2539 33.1519C59.9167 33.1519 59.6827 33.0097 59.5517 32.7259C59.4205 32.4431 59.327 32.0106 59.2708 31.43ZM60.3102 37.5916C59.9292 37.5916 59.5967 37.4684 59.313 37.2216C59.0286 36.975 58.887 36.6303 58.887 36.1869C58.887 35.7997 59.0227 35.4706 59.2942 35.1991C59.5658 34.9272 59.8983 34.7919 60.2914 34.7919C60.6848 34.7919 61.0202 34.9275 61.298 35.1991C61.5758 35.4706 61.7145 35.7997 61.7145 36.1869C61.7145 36.6238 61.5739 36.9672 61.2933 37.2169C61.0123 37.4666 60.6848 37.5916 60.3102 37.5916Z" fill="#F9A7A7"/>
<path d="M75.0515 42.6565H45.3502C44.3184 42.6565 43.4021 42.1184 42.8996 41.2171C42.3971 40.3159 42.4212 39.2537 42.9637 38.3759L57.8143 14.3518C58.329 13.5187 59.2212 13.0215 60.2005 13.0215C61.1799 13.0212 62.0721 13.5187 62.5871 14.3518L77.4377 38.3759C77.9802 39.2537 78.0043 40.3159 77.5018 41.2171C76.9996 42.1184 76.0834 42.6565 75.0515 42.6565ZM60.2009 14.2715C59.658 14.2715 59.1634 14.5471 58.8777 15.009L44.0271 39.033C43.7265 39.5199 43.713 40.1084 43.9915 40.6084C44.2702 41.108 44.778 41.4065 45.3502 41.4065H75.0515C75.6237 41.4065 76.1318 41.108 76.4102 40.6084C76.689 40.1084 76.6755 39.5199 76.3746 39.033L61.524 15.009C61.2384 14.5471 60.7437 14.2712 60.2009 14.2715Z" fill="#F37783"/>
<path d="M71.8825 39.7065H48.5174C47.8943 39.7065 47.3412 39.3815 47.0381 38.8374C46.7346 38.2934 46.749 37.6518 47.0768 37.1218L58.7593 18.223C59.0703 17.7202 59.609 17.4199 60.2003 17.4199C60.7915 17.4199 61.3303 17.7202 61.6409 18.2234L73.3234 37.1218C73.6509 37.6518 73.6656 38.2934 73.3621 38.8374C73.0587 39.3815 72.5056 39.7065 71.8825 39.7065ZM48.14 37.779C48.0162 37.9793 48.0915 38.1602 48.13 38.2287C48.1681 38.2971 48.2825 38.4565 48.5178 38.4565H71.8828C72.1181 38.4565 72.2321 38.2971 72.2703 38.2287C72.3087 38.1599 72.384 37.979 72.2603 37.779L60.5778 18.8802C60.4603 18.6902 60.2746 18.6696 60.2003 18.6696C60.1259 18.6696 59.94 18.6899 59.8228 18.8802L48.14 37.779Z" fill="#F37783"/>
<path d="M21.6016 41.6647V56.3931C21.6016 59.5216 24.1378 62.0578 27.2662 62.0578C30.3947 62.0578 32.9309 59.5216 32.9309 56.3931V41.6647C32.9309 38.5362 30.3947 36 27.2662 36C24.1378 36 21.6016 38.5362 21.6016 41.6647Z" fill="#417DA6"/>
<path d="M32.9309 49.0293V56.3934C32.9309 59.5218 30.3947 62.058 27.2662 62.058C24.1378 62.058 21.6016 59.5218 21.6016 56.3934V49.0293H32.9309Z" fill="white"/>
<path d="M31.6803 61.7766H46.4087C49.5372 61.7766 52.0734 59.2404 52.0734 56.112C52.0734 52.9835 49.5372 50.4473 46.4087 50.4473H31.6803C28.5519 50.4473 26.0156 52.9835 26.0156 56.112C26.0153 59.2404 28.5516 61.7766 31.6803 61.7766Z" fill="#78C1F3"/>
<path d="M39.0469 50.4473H46.4109C49.5394 50.4473 52.0756 52.9835 52.0756 56.112C52.0756 59.2404 49.5394 61.7766 46.4109 61.7766H39.0469V50.4473Z" fill="white"/>
<rect x="13.6016" y="16.8008" width="33.6" height="4" fill="#F6FDFB"/>
</svg>
