<svg width="80" height="80" viewBox="0 0 80 80" fill="none" xmlns="http://www.w3.org/2000/svg">
<path d="M38.9492 22.382C38.2742 23.4445 22.5117 48.332 22.5117 57.557C23.4887 80.7543 56.5083 80.7581 57.4867 57.5568C57.4867 48.332 41.7242 23.4444 41.0492 22.382C40.9287 22.2165 40.7708 22.0818 40.5883 21.9889C40.4058 21.8961 40.204 21.8477 39.9992 21.8477C39.7945 21.8477 39.5926 21.8961 39.4101 21.9889C39.2277 22.0818 39.0697 22.2165 38.9492 22.382ZM35.1992 66.7445C35.0116 67.0173 34.7245 67.2055 34.3995 67.2686C34.0745 67.3317 33.7378 67.2647 33.4617 67.082C31.8742 66.01 30.5736 64.5653 29.6736 62.8743C28.7737 61.1833 28.3018 59.2976 28.2992 57.382C28.3039 57.0535 28.4376 56.7401 28.6715 56.5095C28.9054 56.2788 29.2207 56.1495 29.5492 56.1495C29.8777 56.1495 30.193 56.2788 30.4269 56.5095C30.6608 56.7401 30.7946 57.0535 30.7992 57.382C30.8 58.8885 31.1708 60.3718 31.8792 61.7013C32.5876 63.0309 33.6118 64.1661 34.8617 65.007C35.1327 65.196 35.3194 65.4831 35.3824 65.8074C35.4454 66.1317 35.3797 66.4678 35.1992 66.7445Z" fill="#78C1F3"/>
<path d="M73.75 14.6824H31.85C31.6344 14.6855 31.4224 14.6272 31.2387 14.5144C31.0549 14.4015 30.9071 14.2387 30.8125 14.0449C30.8125 14.0449 27.375 7.15743 27.325 7.06993C27.0221 6.46069 26.5549 5.94824 25.9763 5.59042C25.3976 5.23261 24.7304 5.04367 24.05 5.04493H8.6625C8.18143 5.04455 7.705 5.13902 7.26048 5.32294C6.81596 5.50687 6.41205 5.77663 6.07188 6.11679C5.73171 6.45696 5.46195 6.86086 5.27803 7.30538C5.0941 7.74991 4.99962 8.22633 5 8.7074V55.1324C5.00095 56.4229 5.51316 57.6604 6.42449 58.5741C7.33582 59.4878 8.57203 60.0031 9.8625 60.0074H20.1625C20.062 59.1946 20.0119 58.3764 20.0125 57.5574C20.0125 47.9949 34.025 25.4574 36.8375 21.0449C37.1871 20.5276 37.6582 20.104 38.2096 19.8112C38.761 19.5183 39.3758 19.3652 40.0001 19.3651C40.6245 19.3651 41.2393 19.5182 41.7907 19.811C42.3421 20.1039 42.8132 20.5274 43.1629 21.0447C46.2592 26.3265 61.5664 49.4909 59.8375 60.0074H71.3375C72.3084 60.006 73.2392 59.6197 73.9258 58.9331C74.6123 58.2466 74.9986 57.3158 75 56.3449V15.9324C74.999 15.6011 74.867 15.2838 74.6328 15.0496C74.3986 14.8154 74.0812 14.6833 73.75 14.6824Z" fill="#78C1F3"/>
<path d="M71.3359 7.38281H30.2734C30.7232 8.27796 32.2177 11.2467 32.6734 12.1828H73.7484C74.1754 12.1801 74.5992 12.2565 74.9984 12.4079V11.0454C74.9971 10.0744 74.6108 9.14363 73.9242 8.45706C73.2377 7.77048 72.3069 7.38417 71.3359 7.38281Z" fill="#78C1F3"/>
</svg>
