<svg width="80" height="80" viewBox="0 0 80 80" fill="none" xmlns="http://www.w3.org/2000/svg">
<path d="M70.2187 15.5313H63.625V8.95312L70.2187 15.5313Z" fill="#78C1F3"/>
<path d="M21.5312 31.7344C28.6094 31.7344 34.3438 37.4844 34.3438 44.5469C34.3438 51.6094 28.5938 57.3594 21.5312 57.3594C20.4219 57.3594 19.3438 57.2188 18.3125 56.9531C12.7969 55.5156 8.71875 50.5 8.71875 44.5469C8.71875 38.6562 12.7187 33.6719 18.1562 32.1875C18.2969 32.1875 18.4219 32.1562 18.5312 32.0937C19.4844 31.8594 20.4844 31.7344 21.5312 31.7344ZM22.6719 46.0937C25.2812 45.5312 27.1094 43.1875 27 40.5156C26.8906 37.6875 24.5937 35.375 21.75 35.2656C20.25 35.2031 18.8125 35.7344 17.7344 36.7812C16.6406 37.8125 16.0469 39.2188 16.0469 40.7188C16.0469 41.1406 16.3906 41.4844 16.8125 41.4844C17.2344 41.4844 17.5781 41.1406 17.5781 40.7188C17.5781 39.6406 18.0156 38.625 18.7969 37.875C19.5781 37.125 20.6094 36.7344 21.6875 36.7812C23.7344 36.8594 25.3906 38.5156 25.4688 40.5625C25.5469 42.5 24.2344 44.1875 22.3438 44.5781C21.4219 44.7812 20.7656 45.5781 20.7656 46.5156V50.2344C20.7656 50.6562 21.1094 51 21.5312 51C21.9531 51 22.2969 50.6562 22.2969 50.25V46.5312C22.2812 46.3281 22.4375 46.1562 22.6719 46.0937ZM22.25 53.2812C22.2656 53.2187 22.2656 53.1719 22.2656 53.125C22.2656 52.9219 22.1875 52.7187 22.0469 52.5781C21.875 52.4062 21.6094 52.3281 21.3594 52.375C21.3125 52.3906 21.2656 52.4062 21.2188 52.4219C21.1719 52.4375 21.125 52.4531 21.0781 52.4844C21.0469 52.5156 21 52.5469 20.9687 52.5781C20.8281 52.7187 20.75 52.9219 20.75 53.125C20.75 53.1875 20.75 53.2344 20.7656 53.2812C20.7812 53.3281 20.7969 53.375 20.8125 53.4219C20.8281 53.4687 20.8438 53.5 20.875 53.5469C20.9063 53.5781 20.9375 53.625 20.9687 53.6562C21 53.6875 21.0312 53.7187 21.0781 53.75C21.125 53.7656 21.1719 53.7969 21.2188 53.8125C21.2656 53.8281 21.3125 53.8438 21.3594 53.8594C21.4219 53.875 21.4687 53.875 21.5156 53.875C21.7187 53.875 21.9219 53.7969 22.0469 53.6562C22.0781 53.625 22.1094 53.5938 22.1406 53.5469C22.1562 53.5156 22.1875 53.4687 22.2031 53.4219C22.2188 53.375 22.25 53.3438 22.25 53.2812Z" fill="#78C1F3"/>
<path d="M71.2812 17.0625V68.3906C71.2812 70.4219 69.625 72.0781 67.5938 72.0781H22.5938C20.5625 72.0781 18.9062 70.4219 18.9062 68.3906V58.6719C19.75 58.8281 20.625 58.9062 21.5156 58.9062C29.4219 58.9062 35.8594 52.4687 35.8594 44.5625C35.8594 36.6562 29.4219 30.2187 21.5156 30.2187C20.625 30.2187 19.75 30.2969 18.9062 30.4531V11.6094C18.9062 9.57813 20.5625 7.92188 22.5938 7.92188H62.0938V16.2812C62.0938 16.7031 62.4375 17.0469 62.8594 17.0469L71.2812 17.0625ZM65.0312 54.9219C65.4531 54.9219 65.7969 54.5781 65.7812 54.1562C65.7812 53.7344 65.4375 53.3906 65.0156 53.3906H35.6406C35.2188 53.3906 34.875 53.7344 34.875 54.1562C34.875 54.5781 35.2188 54.9219 35.6406 54.9219H65.0312ZM65.7969 25.375C65.7969 24.9531 65.4531 24.6094 65.0312 24.6094H25.0938C24.6719 24.6094 24.3281 24.9531 24.3281 25.375C24.3281 25.7969 24.6719 26.1406 25.0938 26.1406H65.0469C65.4688 26.1562 65.7969 25.7969 65.7969 25.375ZM65.7969 44.5312C65.7969 44.1094 65.4531 43.7656 65.0312 43.7656H38.6094C38.1875 43.7656 37.8438 44.1094 37.8438 44.5312C37.8438 44.9531 38.1875 45.2969 38.6094 45.2969H65.0312C65.4688 45.3125 65.7969 44.9687 65.7969 44.5312ZM65.7969 63.75C65.7969 63.3281 65.4531 62.9844 65.0312 62.9844H25.0938C24.6719 62.9844 24.3281 63.3281 24.3281 63.75C24.3281 64.1719 24.6719 64.5156 25.0938 64.5156H65.0469C65.4688 64.5156 65.7969 64.1562 65.7969 63.75ZM65.0312 35.7187C65.4531 35.7187 65.7812 35.375 65.7812 34.9531C65.7812 34.5312 65.4375 34.1875 65.0156 34.1875H35.6406C35.2188 34.1875 34.875 34.5312 34.875 34.9531C34.875 35.375 35.2188 35.7187 35.6406 35.7187H65.0312Z" fill="#78C1F3"/>
</svg>
